<?xml version="1.0" standalone="no"?>
<!DOCTYPE svg PUBLIC "-//W3C//DTD SVG 20010904//EN"
 "http://www.w3.org/TR/2001/REC-SVG-20010904/DTD/svg10.dtd">
<svg version="1.0" xmlns="http://www.w3.org/2000/svg"
 width="900.000000pt" height="900.000000pt" viewBox="0 0 900.000000 900.000000"
 preserveAspectRatio="xMidYMid meet">
<metadata>
Created by potrace 1.14, written by Peter Selinger 2001-2017
</metadata>
<g transform="translate(0.000000,900.000000) scale(0.100000,-0.100000)"
fill="#000000" stroke="none">
<path d="M0 7024 c0 -1577 3 -1975 13 -1971 120 45 489 155 607 181 69 15 281
48 440 68 144 18 545 15 745 -6 702 -72 1280 -306 1630 -660 129 -131 204
-243 100 -150 -22 19 -65 54 -95 77 -30 23 -68 54 -85 70 -55 53 -269 188
-390 247 -289 142 -587 228 -737 214 l-66 -6 -17 -55 c-21 -67 -58 -113 -91
-113 -26 0 -40 -8 -83 -51 -37 -37 -51 -56 -51 -69 0 -5 -6 -10 -13 -10 -29 0
-70 -82 -60 -120 3 -11 0 -26 -6 -34 -9 -11 -4 -17 28 -29 52 -21 60 -36 31
-59 -22 -18 -45 -19 -152 -9 -4 1 -15 10 -25 20 -16 18 -23 19 -58 9 -60 -17
-157 -17 -180 -2 -23 17 -106 19 -122 3 -8 -8 -38 -7 -107 1 -92 11 -97 10
-127 -11 -26 -18 -38 -20 -82 -15 -78 11 -112 8 -174 -14 -31 -11 -59 -17 -63
-15 -4 3 -19 -4 -33 -15 -20 -16 -40 -20 -101 -20 -58 0 -88 -5 -123 -22 -26
-12 -59 -21 -73 -20 -30 4 -146 -46 -194 -83 -18 -14 -42 -25 -53 -25 -10 0
-34 -11 -53 -25 -19 -14 -40 -25 -47 -25 -8 0 -26 -12 -41 -27 -15 -15 -34
-27 -43 -28 -9 -1 -24 -8 -33 -17 -14 -15 -16 -53 -16 -312 0 -256 2 -296 15
-296 8 0 15 -5 15 -11 0 -13 93 -54 145 -63 22 -5 52 -15 66 -23 25 -15 30
-14 94 17 l67 33 -36 36 c-29 28 -38 33 -45 22 -12 -18 -41 -7 -42 16 -2 33 2
58 13 81 9 17 9 31 0 56 -15 41 -15 98 0 131 13 30 38 33 45 5 3 -11 9 -20 14
-20 14 0 10 29 -7 56 -12 17 -14 28 -7 35 15 15 69 7 65 -10 -4 -19 8 -51 19
-51 5 0 9 6 9 14 0 23 26 38 47 27 10 -5 26 -12 37 -15 14 -5 17 -12 11 -29
-21 -69 -24 -95 -14 -129 9 -34 53 -88 71 -88 5 0 8 -9 8 -21 0 -14 -5 -19
-15 -16 -21 9 -31 -14 -11 -25 23 -13 20 -50 -9 -92 -28 -42 -30 -49 -13 -76
10 -15 9 -22 -5 -38 -20 -22 -22 -43 -5 -60 10 -10 7 -16 -10 -28 -31 -21 -27
-41 8 -49 17 -4 31 -11 31 -16 1 -5 2 -14 3 -20 0 -7 8 -15 16 -19 76 -36 90
-45 90 -56 0 -7 6 -11 14 -8 12 5 27 -31 30 -73 2 -22 23 -35 52 -31 21 2 30
9 32 26 2 13 10 26 18 29 21 8 53 -24 47 -47 -6 -24 22 -39 78 -40 58 -2 99
-10 98 -18 -3 -19 2 -32 12 -32 8 0 8 4 1 13 -13 15 11 52 27 42 24 -14 9 23
-19 50 -27 26 -33 28 -51 16 -21 -12 -21 -11 -15 40 4 29 8 54 9 55 4 4 33 6
70 5 33 -1 40 -5 50 -30 6 -16 20 -35 32 -41 22 -12 34 -70 15 -70 -5 0 -10
-15 -10 -34 0 -27 4 -34 18 -31 9 1 28 -4 41 -12 21 -14 26 -13 52 6 22 16 47
23 97 25 64 2 67 4 64 26 -1 13 -12 30 -23 38 -18 12 -19 15 -4 26 14 10 14
13 1 31 -15 19 -15 19 -16 1 0 -18 -2 -18 -25 4 l-25 23 0 -26 c0 -41 -16 -32
-33 18 -18 50 -17 52 23 28 27 -15 29 -15 46 2 18 17 19 17 36 -22 10 -23 19
-51 22 -64 2 -17 9 -23 22 -21 10 2 23 -3 30 -12 7 -10 18 -14 28 -10 23 9 15
25 -22 43 -42 21 -58 52 -42 80 14 27 -5 60 -24 41 -12 -12 -55 -13 -73 -2 -6
4 -14 24 -18 44 -5 28 -11 35 -22 31 -13 -5 -15 -1 -9 20 5 20 3 27 -9 27 -8
0 -15 5 -15 10 0 6 -8 10 -17 8 -12 -2 -19 5 -21 20 -3 21 0 23 35 20 33 -3
38 -6 36 -25 -3 -27 6 -29 33 -8 25 19 34 19 34 0 0 -19 14 -19 29 -1 9 11 6
17 -14 30 -29 19 -25 36 8 36 46 0 105 -143 63 -152 -27 -6 -1 -30 35 -31 31
-2 34 0 34 30 0 18 -6 35 -12 38 -15 5 -17 61 -3 70 13 8 13 62 0 70 -16 10
-8 76 10 83 22 8 39 34 40 60 0 12 7 25 15 28 24 10 18 40 -16 76 -17 18 -35
43 -40 55 -4 13 -15 23 -23 23 -8 0 -16 6 -19 13 -5 15 -46 -49 -54 -85 -6
-33 -29 -37 -38 -8 -9 28 -60 27 -75 0 -6 -12 -8 -29 -5 -40 4 -13 0 -20 -14
-25 -12 -3 -25 -3 -31 0 -15 9 -12 -32 6 -66 10 -21 13 -43 9 -73 -14 -91 -45
-83 -45 12 0 28 -4 52 -10 52 -5 0 -10 15 -10 33 0 26 -6 35 -33 47 -40 19
-44 41 -19 113 l18 55 -23 28 c-38 47 -48 95 -29 132 9 18 21 32 26 32 6 0 8
11 4 26 -5 19 0 32 22 55 15 16 26 31 23 33 -2 2 -19 11 -37 20 -18 9 -37 27
-41 39 -8 20 -2 25 48 50 31 15 86 39 124 53 l67 25 29 -20 c16 -12 36 -21 45
-21 9 0 28 -7 41 -16 14 -9 36 -14 51 -11 18 3 43 -6 82 -29 31 -19 61 -34 68
-34 7 0 21 -11 32 -25 12 -15 26 -23 35 -19 20 7 44 -19 56 -62 7 -26 6 -45
-6 -77 -17 -45 -21 -66 -22 -112 l-2 -30 -17 28 c-18 30 -43 35 -62 12 -19
-23 -72 -28 -115 -11 -31 13 -42 14 -64 3 -14 -7 -27 -19 -28 -27 -4 -19 57
-59 94 -62 23 -1 28 -7 28 -26 0 -14 8 -30 18 -36 15 -9 21 -7 33 8 19 27 18
34 -8 39 l-23 4 23 2 c12 0 22 6 22 12 0 6 21 9 53 7 45 -3 52 -6 55 -25 3
-18 -7 -27 -48 -48 l-50 -26 26 -47 c15 -26 34 -53 43 -60 10 -8 15 -32 17
-73 1 -61 13 -82 41 -72 7 3 13 17 14 32 0 14 3 20 6 13 2 -6 10 -9 16 -5 7 4
6 -1 -2 -10 -19 -24 2 -97 29 -97 8 0 4 91 -5 117 -2 7 0 15 6 19 6 3 8 12 5
19 -3 8 1 18 8 24 11 9 15 6 18 -14 3 -14 1 -25 -3 -25 -5 0 -9 -9 -9 -19 0
-14 8 -21 28 -23 23 -3 27 -8 29 -38 1 -19 6 -57 12 -85 26 -130 7 -194 -68
-234 -12 -7 -26 -23 -31 -37 -7 -19 -15 -24 -29 -19 -12 3 -21 0 -25 -10 -3
-8 -12 -15 -21 -15 -19 0 -19 -27 0 -64 20 -38 13 -55 -19 -49 -21 4 -24 2
-20 -18 3 -16 -1 -12 -12 10 -21 47 -39 21 -18 -27 17 -41 17 -45 4 -37 -6 3
-10 3 -10 -2 1 -19 19 -34 46 -38 84 -14 100 -18 113 -28 12 -10 14 -9 8 5 -8
22 1 48 17 48 6 0 12 9 12 20 0 14 -11 23 -33 31 -27 9 -33 16 -33 40 0 27 2
29 28 22 53 -13 66 -9 75 22 16 52 23 60 51 58 25 -2 45 9 88 50 18 17 47 23
49 10 6 -50 5 -92 -1 -90 -5 1 -25 -23 -44 -53 -34 -52 -45 -77 -28 -67 4 3 8
-8 9 -24 1 -19 -3 -29 -12 -29 -9 0 -12 8 -9 27 5 27 5 27 -15 8 -33 -29 -35
-11 -3 26 16 19 32 43 36 54 7 18 6 18 -13 -2 -12 -12 -21 -25 -21 -28 0 -14
-53 -75 -65 -75 -7 0 -18 -14 -24 -31 -9 -25 -14 -29 -24 -20 -21 16 -28 2 -9
-19 15 -18 16 -18 43 3 15 12 28 27 28 33 1 17 22 22 51 13 18 -5 20 -7 6 -8
-11 -1 -16 -6 -13 -15 3 -7 -8 -26 -24 -42 -40 -38 -37 -49 6 -22 19 13 42 38
50 56 9 17 19 32 24 32 14 0 91 119 91 142 0 19 2 20 10 8 8 -11 9 -9 5 10 -4
19 0 31 14 45 12 10 24 15 27 12 8 -8 46 18 97 67 47 44 72 48 63 10 -5 -18
-3 -24 5 -18 9 5 10 0 5 -20 -5 -19 -3 -26 9 -26 21 0 19 -17 -5 -30 -11 -6
-20 -16 -20 -21 0 -6 -14 -31 -30 -56 -37 -54 -38 -64 -4 -29 15 14 33 26 41
26 8 0 23 10 33 23 10 12 21 19 25 15 10 -10 -4 -60 -14 -53 -5 2 -12 -7 -16
-22 -4 -17 -2 -29 4 -31 15 -5 14 -22 -2 -22 -17 0 -47 -36 -47 -58 0 -42 -95
-137 -126 -125 -14 5 -16 3 -11 -11 5 -12 -4 -27 -31 -52 -20 -18 -40 -34 -44
-34 -4 0 -13 -6 -20 -13 -37 -34 -96 -75 -118 -82 l-25 -7 24 20 c13 12 31 24
40 27 10 3 26 20 37 39 10 18 41 57 68 87 27 30 46 48 42 42 -4 -7 -2 -13 3
-13 12 0 61 73 61 90 0 20 -17 9 -70 -45 -30 -32 -59 -54 -67 -51 -7 3 -13 1
-13 -3 0 -5 5 -11 11 -13 20 -7 -61 -92 -114 -121 -29 -16 -44 -26 -34 -23 20
6 23 -7 5 -21 -17 -13 -74 -8 -70 6 2 13 -14 15 -23 2 -6 -10 21 -41 35 -41 5
0 10 6 13 13 2 6 8 9 12 4 5 -4 0 -14 -11 -22 -24 -18 -38 -19 -28 -3 5 9 2 9
-9 -1 -9 -7 -32 -17 -50 -21 -28 -7 -29 -8 -6 -9 41 -2 140 19 164 35 12 8 25
12 28 9 4 -3 5 -2 2 2 -11 14 36 34 65 28 32 -7 43 10 13 18 -15 4 -15 5 2 6
13 1 16 4 8 9 -8 5 -4 11 12 18 18 9 22 9 18 -1 -2 -7 0 -16 6 -20 6 -3 11 -1
11 4 0 6 5 11 11 11 5 0 45 26 87 58 92 68 128 92 141 92 5 0 37 27 72 60 62
58 99 74 114 49 10 -15 -30 -49 -57 -49 -16 0 -19 -3 -11 -11 6 -6 9 -19 6
-28 -4 -15 -4 -15 9 0 11 13 16 14 25 4 9 -10 5 -14 -23 -20 -28 -5 -34 -10
-29 -25 5 -15 2 -17 -15 -13 -21 5 -29 -12 -9 -19 9 -3 9 -9 1 -25 -12 -23
-73 -37 -83 -20 -8 12 -39 2 -39 -12 0 -6 15 -13 33 -16 44 -9 190 45 382 140
200 98 346 195 508 335 49 42 186 205 236 280 71 105 76 116 178 385 8 22 18
45 23 50 4 6 10 30 14 54 8 55 29 121 38 121 12 0 21 -130 13 -203 -11 -114
-33 -205 -72 -297 -78 -180 -164 -304 -315 -452 -87 -86 -286 -246 -350 -281
-61 -34 -88 -53 -88 -61 0 -5 6 -4 13 2 6 5 23 13 37 17 22 7 23 6 8 -9 -9 -9
-21 -16 -27 -16 -6 0 -7 -7 -4 -17 4 -11 3 -14 -5 -9 -7 4 -12 2 -12 -4 0 -7
-7 -10 -15 -6 -9 3 -15 0 -15 -9 0 -18 -38 -57 -100 -105 -24 -19 -52 -42 -60
-50 -9 -8 -32 -26 -53 -40 -20 -14 -37 -28 -37 -32 0 -5 -5 -8 -11 -8 -6 0
-50 -27 -98 -60 -48 -33 -91 -60 -95 -60 -4 0 -21 -16 -39 -35 -17 -19 -36
-35 -42 -35 -5 0 -27 -16 -48 -35 -21 -19 -51 -42 -68 -50 -47 -25 -33 -36 17
-15 49 22 74 25 74 11 0 -16 -111 -155 -164 -204 -191 -181 -524 -294 -840
-285 -151 4 -161 10 -138 81 8 25 19 44 24 41 11 -7 68 53 68 71 0 7 17 16 38
20 38 6 78 25 55 25 -7 0 -13 5 -13 10 0 6 8 10 19 10 22 0 45 25 36 40 -3 5
-1 10 4 10 6 0 11 11 11 25 0 16 6 25 15 25 9 0 18 7 21 15 4 8 12 15 20 15
10 0 14 12 14 40 0 22 5 40 10 40 6 0 10 -8 10 -17 0 -26 15 -4 17 25 6 78 17
148 24 152 4 3 5 11 0 18 -5 9 -75 13 -252 17 -241 5 -287 8 -404 26 -33 5
-89 13 -125 19 -56 8 -107 17 -315 60 -75 16 -250 68 -395 119 -80 28 -146 51
-148 51 -1 0 -2 -497 -2 -1105 l0 -1105 40 26 c22 15 37 31 33 37 -3 5 -2 7 4
4 6 -4 30 7 55 22 72 46 222 118 261 125 19 4 40 13 47 21 24 29 40 17 40 -30
0 -34 5 -47 20 -55 11 -6 18 -15 15 -21 -4 -5 3 -9 14 -9 12 0 21 -5 21 -11 0
-6 -9 -9 -20 -6 -11 3 -23 1 -26 -4 -3 -5 0 -9 7 -9 6 0 18 -8 26 -17 8 -10
12 -12 8 -5 -4 8 2 12 16 12 21 0 22 -1 4 -20 -10 -11 -14 -20 -9 -20 5 0 0
-7 -10 -15 -25 -19 -14 -19 48 0 28 8 64 13 80 10 17 -3 45 -1 61 5 27 9 26 9
-15 5 l-45 -4 50 14 c28 7 64 13 80 13 l30 0 -30 -7 c-16 -4 44 -5 135 -3 162
4 344 -14 359 -36 3 -5 15 -12 26 -16 19 -7 19 -8 -4 -21 -14 -7 -26 -20 -27
-29 -3 -19 -3 -19 32 -6 21 8 29 7 38 -5 10 -14 16 -14 53 -1 23 8 73 15 110
16 37 0 77 1 88 2 23 0 70 -16 132 -45 56 -26 124 -95 163 -163 l31 -54 2102
0 2101 0 -26 28 c-28 30 -166 240 -245 372 -28 47 -95 174 -148 283 -87 177
-98 206 -103 265 -9 128 42 187 156 179 82 -6 154 -49 237 -142 125 -139 297
-382 456 -644 67 -109 113 -175 124 -177 10 -1 21 -7 24 -12 6 -9 38 -8 47 1
2 2 -5 15 -16 30 -24 31 -26 57 -3 57 9 0 25 8 36 17 12 11 21 14 24 8 2 -6
18 -9 36 -7 25 2 51 -9 125 -56 93 -59 134 -106 130 -149 0 -10 0 -26 0 -35 2
-17 57 -18 1002 -18 l1000 0 0 624 c0 490 -3 625 -12 629 -10 3 -10 9 0 26 9
15 12 84 12 246 l0 226 -62 29 c-78 36 -124 48 -113 30 10 -17 -16 -32 -32
-18 -18 15 -16 28 4 28 37 0 5 13 -87 35 l-25 6 24 -11 c43 -19 13 -23 -41 -5
-98 31 -108 33 -108 24 0 -5 -11 -3 -25 3 -26 12 -34 28 -13 28 16 0 5 10 -18
15 -198 48 -279 55 -300 27 -12 -16 -13 -16 -19 0 -7 17 -9 17 -61 -9 -16 -9
-24 -6 -41 13 -14 16 -17 26 -10 33 8 8 5 11 -10 11 -12 0 -28 3 -36 6 -9 3
-14 -1 -14 -13 0 -10 -1 -23 -2 -30 -2 -19 -65 -53 -87 -47 -12 3 -26 -1 -33
-10 -21 -25 -30 -19 -42 29 -7 27 -17 45 -26 45 -8 0 -11 -5 -7 -12 6 -10 4
-10 -7 0 -19 17 -29 15 -29 -7 0 -10 -12 -26 -26 -36 -23 -15 -27 -15 -50 0
-14 9 -23 23 -22 32 3 18 -38 38 -47 22 -4 -5 1 -12 10 -15 14 -6 14 -8 -1
-25 -9 -11 -30 -19 -45 -19 -19 0 -34 -8 -45 -25 -9 -14 -19 -25 -23 -25 -3 0
-17 16 -30 35 l-23 34 -17 -21 c-15 -17 -21 -19 -39 -9 -18 10 -28 9 -55 -6
-17 -10 -39 -26 -48 -35 -19 -20 -61 -23 -87 -7 -14 9 -25 8 -48 -4 l-29 -15
42 -17 c44 -17 96 -68 116 -112 9 -21 8 -27 -6 -38 -9 -7 -17 -22 -17 -34 0
-11 -4 -21 -9 -21 -12 0 -23 29 -15 41 3 5 -4 22 -15 38 -12 16 -21 33 -21 38
0 4 -22 30 -50 56 -42 41 -53 47 -76 41 -19 -5 -25 -4 -20 5 11 18 -2 13 -30
-11 -27 -25 -51 -29 -72 -14 -10 8 -13 5 -10 -9 3 -19 -21 -30 -102 -42 -19
-3 -39 -9 -45 -13 -5 -4 -37 -13 -70 -20 -33 -7 -71 -16 -85 -21 -14 -5 -72
-11 -130 -13 -58 -2 -135 -10 -172 -16 -37 -7 -73 -10 -80 -7 -7 3 -3 6 10 6
21 1 33 21 12 21 -17 0 -4 57 19 81 16 17 21 32 17 51 -4 20 0 30 13 38 11 5
22 23 26 39 10 46 48 84 84 84 27 0 34 7 53 44 12 24 26 42 32 41 6 -2 21 6
34 17 12 11 31 28 42 37 11 10 26 15 35 12 11 -4 20 5 30 30 10 23 22 36 34
36 17 0 41 37 41 65 0 9 18 16 58 20 31 3 66 7 77 8 11 2 -45 6 -125 10 -607
32 -1088 150 -1535 376 -332 168 -560 331 -760 543 -156 165 -224 275 -225
359 0 25 -3 49 -7 53 -5 4 -8 29 -8 55 -1 35 -9 60 -32 98 -18 28 -36 69 -42
90 -16 61 -24 185 -16 257 l7 66 36 -28 c20 -15 43 -33 50 -40 8 -6 22 -17 33
-23 11 -5 57 -38 103 -73 80 -60 127 -83 145 -71 12 7 21 -31 21 -90 0 -27 7
-63 15 -79 10 -19 15 -58 15 -120 0 -98 22 -262 39 -293 5 -11 11 -31 13 -46
2 -14 7 -29 11 -33 4 -4 7 -19 7 -33 l0 -25 -20 22 c-11 12 -20 25 -20 29 0 4
-32 42 -71 83 -38 41 -83 100 -99 130 -32 61 -100 140 -100 118 0 -18 49 -114
81 -159 29 -41 65 -82 147 -166 34 -35 62 -67 62 -72 0 -17 155 -163 242 -228
589 -438 1476 -654 2292 -558 193 23 308 46 335 67 17 13 27 15 31 7 14 -22
303 69 478 152 305 144 499 315 612 539 135 268 116 597 -49 855 -14 22 -31
51 -38 64 -22 40 -148 183 -235 267 -102 98 -282 244 -300 244 -3 0 -9 -15
-12 -33 -8 -41 -32 -77 -53 -77 -9 0 -35 16 -59 35 -23 19 -46 35 -51 35 -5 0
-17 -31 -26 -69 -16 -60 -40 -101 -60 -101 -4 0 -14 15 -23 33 -9 17 -20 34
-23 37 -3 3 -12 17 -20 33 -17 31 -36 31 -35 -2 1 -24 -1 -25 -26 -11 -30 16
-74 60 -60 60 7 0 10 6 7 14 -5 14 13 80 26 92 4 4 14 -9 22 -29 17 -42 18
-43 39 -21 23 22 20 62 -8 98 -40 53 -63 76 -73 76 -5 0 -15 -33 -22 -72 -23
-132 -116 -331 -180 -385 -35 -30 -44 -28 -36 6 6 29 -8 51 -20 31 -12 -20
-33 -9 -38 20 -4 18 -13 30 -22 30 -12 0 -15 -6 -10 -20 6 -19 -36 -88 -102
-168 -28 -34 -31 -10 -5 33 10 17 21 42 24 58 5 25 3 27 -27 27 -26 0 -35 -5
-44 -28 -6 -15 -10 -39 -7 -52 2 -14 5 -36 5 -50 1 -20 3 -22 11 -10 8 13 10
12 10 -3 0 -10 -16 -31 -35 -48 -19 -17 -35 -40 -35 -51 0 -24 25 -74 56 -111
13 -16 24 -34 24 -42 0 -23 71 -168 104 -215 56 -76 59 -86 40 -119 -32 -53
-143 -90 -215 -71 -47 13 -69 1 -69 -35 0 -12 -9 -34 -21 -49 -11 -14 -18 -30
-14 -36 3 -5 2 -18 -4 -27 -9 -17 -10 -17 -17 0 -6 17 -8 17 -25 1 -12 -11
-36 -16 -69 -16 -47 0 -50 -2 -50 -27 0 -69 -30 -116 -117 -186 -29 -23 -31
-24 -26 -5 3 11 9 23 14 26 5 3 9 10 9 16 0 6 -11 1 -25 -12 -27 -26 -34 -16
-10 16 15 20 20 81 7 101 -4 7 -49 23 -100 36 l-92 24 -7 -25 c-4 -18 -2 -27
7 -30 8 -3 26 -19 42 -36 25 -27 26 -31 11 -37 -10 -3 -32 -1 -50 4 -49 15
-57 2 -44 -69 6 -32 11 -82 11 -111 l0 -53 33 2 c17 1 38 8 44 14 10 9 20 10
42 1 16 -6 27 -15 25 -19 -8 -13 -86 -52 -114 -58 -22 -5 -25 -10 -22 -45 2
-22 8 -45 13 -51 14 -17 -2 -76 -21 -81 -23 -6 -23 -51 0 -58 21 -7 52 4 45
15 -3 5 10 4 30 -1 26 -7 40 -6 57 4 36 23 104 30 121 12 8 -8 18 -11 23 -7 5
4 3 0 -4 -9 -6 -9 -9 -19 -5 -22 3 -4 -3 -7 -15 -7 -12 0 -22 -5 -22 -11 0
-16 -31 -38 -52 -39 -37 0 -16 -20 21 -20 48 0 71 -8 71 -25 0 -7 6 -16 13
-19 6 -3 -1 -4 -18 -3 -25 2 -31 -2 -33 -21 -3 -16 -8 -22 -19 -18 -8 3 -17 6
-21 6 -3 0 3 7 14 15 18 14 17 14 -12 15 -24 0 -31 -4 -30 -16 0 -11 -7 -18
-21 -19 -16 -1 -23 4 -23 16 0 23 -26 31 -40 13 -16 -18 -30 -18 -30 1 0 8 -2
15 -4 15 -2 0 -26 -22 -54 -50 -56 -56 -89 -63 -123 -29 -11 11 -29 21 -40 22
-10 1 -20 6 -21 12 -6 43 -18 65 -35 65 -10 0 -13 10 -11 38 2 28 7 37 21 36
9 -1 17 2 17 6 0 5 9 6 20 3 11 -3 17 -9 14 -14 -3 -5 0 -9 5 -9 6 0 11 6 11
14 0 15 29 29 51 24 11 -2 14 24 12 135 -1 76 -6 153 -12 170 -5 18 -17 70
-26 117 -9 47 -20 102 -25 123 -4 20 -5 37 -1 37 17 0 -2 63 -20 67 -11 3 -19
8 -19 12 0 3 -11 19 -25 35 -14 16 -25 33 -25 38 0 5 -16 16 -36 24 -33 14
-38 14 -55 -2 -16 -14 -19 -15 -24 -2 -4 10 -15 13 -31 10 -19 -3 -33 2 -50
22 -25 26 -39 32 -47 19 -2 -5 -3 -3 -1 3 1 6 -2 17 -6 24 -6 10 -14 4 -29
-21 -24 -39 -26 -61 -9 -89 17 -27 7 -33 -61 -38 -40 -3 -67 1 -87 11 -28 15
-84 63 -84 72 0 11 30 4 44 -11 9 -8 16 -11 16 -6 0 5 11 7 25 4 18 -3 25 0
25 11 0 23 -46 55 -103 72 -52 15 -101 60 -92 83 3 8 -11 42 -31 77 -34 61
-37 64 -88 76 -46 10 -53 14 -48 31 4 18 6 18 14 4 13 -23 73 -21 95 3 18 19
19 17 67 -81 32 -66 66 -118 97 -151 42 -44 51 -49 76 -42 15 4 42 7 58 7 51
-1 85 17 85 45 0 14 -4 21 -10 18 -5 -3 -10 2 -11 12 0 10 -9 32 -20 48 -10
17 -23 39 -28 50 -5 11 -18 29 -30 39 -11 11 -21 25 -21 33 0 15 -26 18 -35 3
-9 -14 -47 28 -43 48 3 15 6 14 26 -6 12 -12 22 -19 22 -16 0 22 -126 138
-141 129 -5 -4 -9 0 -9 8 0 8 -9 17 -20 20 -19 5 -38 40 -57 102 -6 23 -17 32
-44 39 -31 8 -35 12 -35 42 0 34 10 45 19 22 3 -7 12 4 21 25 9 20 23 37 32
37 8 0 22 6 30 14 10 11 124 221 124 230 0 1 -9 2 -19 3 -12 1 -31 -14 -51
-40 -58 -80 -100 -142 -110 -164 -5 -13 -13 -23 -18 -23 -5 0 -22 -13 -38 -30
-16 -16 -34 -30 -41 -30 -6 0 -19 -21 -28 -48 -10 -26 -31 -76 -48 -111 -30
-65 -30 -65 -18 -150 15 -111 73 -323 90 -329 8 -3 12 3 11 14 -4 33 0 44 13
44 23 0 67 -55 72 -90 8 -66 -25 -92 -131 -100 -80 -6 -87 4 -24 34 22 11 40
25 40 31 0 7 -20 29 -45 49 -35 29 -46 46 -51 76 -4 22 -10 37 -15 35 -4 -3
-11 11 -15 32 -8 41 -8 57 -4 153 3 91 -23 182 -49 166 -6 -4 -11 -4 -11 0 0
33 34 245 43 266 l11 27 17 -25 16 -25 7 40 c3 23 11 41 16 41 6 0 10 -5 10
-12 0 -7 3 -8 9 -2 5 5 16 54 26 109 17 100 35 146 35 90 0 -17 -7 -70 -16
-119 -14 -85 -14 -133 1 -64 4 18 16 49 26 68 11 19 19 44 19 56 0 64 28 110
44 72 8 -21 37 23 30 45 -4 11 -2 17 3 14 6 -4 15 4 21 17 8 19 8 25 -3 30 -9
3 -12 0 -8 -10 3 -7 0 -14 -6 -14 -6 0 -11 5 -11 11 0 8 -5 7 -16 -2 -19 -16
-34 2 -34 43 0 29 -24 111 -41 141 -5 10 -7 50 -3 97 5 61 4 80 -6 80 -7 0
-10 6 -7 14 3 8 -3 22 -14 32 -10 9 -19 27 -19 40 0 18 -7 24 -35 30 -32 6
-35 9 -35 41 0 32 -2 35 -24 31 -22 -5 -24 -2 -20 21 5 24 2 27 -38 36 -76 18
-84 11 -67 -54 3 -10 -5 -16 -24 -17 -16 -2 -35 -8 -43 -15 -11 -9 -15 -8 -20
5 -9 23 -32 20 -37 -6 -2 -13 -3 13 -1 56 2 45 9 83 15 87 16 9 -22 29 -55 29
-14 0 -29 8 -34 17 -9 15 -23 20 -73 25 -10 2 -14 9 -11 20 2 10 -1 18 -7 18
-6 0 -17 12 -23 26 -9 18 -17 24 -32 20 -11 -3 -27 0 -35 7 -11 9 -13 9 -8 0
4 -6 3 -14 -2 -17 -5 -4 -12 -3 -15 2 -7 11 -123 14 -130 3 -11 -16 -86 -73
-86 -64 0 8 19 31 76 96 25 28 17 39 -10 12 -8 -8 -19 -15 -25 -15 -6 0 -8 7
-5 15 4 8 1 15 -5 15 -6 0 -11 -5 -11 -11 0 -5 -4 -8 -10 -4 -5 3 -7 13 -4 23
3 9 -8 -6 -25 -35 -35 -59 -65 -103 -103 -153 -14 -19 -44 -69 -66 -110 -22
-41 -45 -74 -52 -72 -7 1 -19 -3 -28 -10 -12 -10 -16 -10 -19 0 -3 6 -10 9
-15 6 -6 -4 4 21 23 55 20 36 39 59 46 57 7 -3 15 -1 18 4 3 4 0 10 -6 12 -8
3 -8 8 2 18 8 8 27 33 44 55 34 46 55 72 73 90 6 8 12 16 12 20 0 3 9 18 19
33 11 15 22 38 26 50 6 21 5 23 -13 13 -14 -7 -24 -7 -37 3 -18 13 -18 14 2
39 11 15 24 23 28 19 5 -4 5 -1 0 7 -7 11 -13 9 -29 -12 -21 -26 -44 -38 -31
-17 10 15 -2 12 -20 -6 -13 -13 -14 -19 -4 -25 10 -6 5 -11 -15 -18 -112 -43
-431 -519 -452 -675 -4 -25 -10 -46 -15 -46 -10 0 -4 42 17 117 8 28 14 60 14
72 0 11 20 59 45 107 25 47 43 90 39 95 -3 5 -1 9 5 9 5 0 13 10 17 22 3 12
10 26 15 32 10 12 54 69 135 173 30 40 53 77 49 83 -4 6 -1 9 6 8 6 -2 14 3
16 10 3 6 -1 12 -7 12 -7 0 -9 8 -5 20 8 24 -8 26 -57 6 -39 -17 -88 -62 -88
-82 0 -8 -4 -14 -10 -14 -5 0 -10 5 -10 10 0 6 -9 10 -21 10 -13 0 -18 4 -14
13 4 6 -1 3 -9 -7 -19 -23 -20 -60 -5 -103 9 -29 7 -34 -29 -72 -34 -35 -39
-38 -35 -18 3 13 -2 29 -10 36 -13 10 -18 8 -31 -11 -22 -31 -20 -45 2 -17 15
17 21 19 27 9 5 -9 4 -11 -3 -6 -7 4 -16 -2 -21 -17 -6 -14 -15 -27 -22 -29
-22 -7 -1 -38 26 -38 16 0 25 -6 25 -16 0 -8 -4 -13 -8 -10 -5 3 -8 -4 -8 -16
1 -15 -7 -23 -26 -29 -22 -6 -28 -4 -29 9 0 11 -2 12 -6 4 -2 -6 -8 -10 -13
-7 -21 13 -28 -145 -11 -245 6 -36 13 -87 16 -115 l5 -50 -16 34 c-21 47 -33
25 -27 -53 4 -50 0 -71 -19 -115 l-25 -54 -22 46 c-13 26 -29 47 -36 47 -7 0
-21 12 -30 27 -15 22 -16 32 -7 55 14 38 4 138 -14 138 -10 0 -11 6 -3 26 18
49 2 35 -20 -16 -18 -41 -21 -65 -18 -117 3 -36 10 -69 17 -73 6 -4 10 -16 8
-26 -3 -15 -7 -12 -24 16 -49 85 -64 152 -45 203 5 13 12 41 15 63 4 21 11 43
16 48 16 16 11 40 -10 53 -21 14 -22 13 -56 -32 -13 -18 -13 -16 -1 15 8 19
37 66 66 104 28 38 64 97 80 130 16 34 47 100 70 148 22 48 41 91 41 96 0 5
14 41 31 78 75 168 176 321 227 348 20 10 57 35 81 55 24 19 58 41 75 47 17 7
45 18 62 25 30 12 36 10 109 -32 42 -24 86 -56 96 -71 12 -16 39 -33 69 -43
27 -9 58 -27 68 -40 13 -16 33 -25 72 -30 36 -5 61 -15 77 -31 13 -13 29 -24
36 -24 30 0 465 -139 517 -165 45 -23 401 -253 497 -321 29 -20 65 -49 80 -64
15 -14 55 -48 88 -74 33 -26 78 -65 100 -87 63 -61 145 -127 210 -169 33 -21
76 -52 95 -69 52 -47 141 -108 179 -126 41 -18 115 -77 147 -118 7 -7 23 -31
37 -53 14 -21 53 -66 86 -99 34 -33 73 -79 87 -103 14 -23 28 -42 33 -42 14 0
85 56 143 113 63 62 73 68 65 36 -4 -15 -2 -19 9 -15 8 3 14 -1 14 -9 0 -8 -4
-15 -9 -15 -18 0 -21 -33 -5 -51 22 -24 29 -24 54 3 24 26 26 38 4 38 -8 0
-13 4 -9 9 3 5 1 12 -5 16 -15 9 -12 36 6 56 14 16 12 21 -20 66 -37 51 -61
74 -95 93 -14 7 -21 7 -21 0 0 -5 -10 -10 -22 -10 -17 0 -30 13 -51 49 -15 27
-47 73 -71 102 -25 30 -42 57 -40 61 14 22 134 -83 134 -117 0 -40 46 11 53
59 6 36 3 42 -41 87 -26 27 -52 49 -59 49 -12 0 -56 50 -50 57 9 8 105 -52
144 -89 22 -22 47 -38 55 -36 7 3 18 -2 25 -11 6 -9 15 -12 20 -8 4 5 -2 17
-14 27 -34 27 -26 105 8 84 12 -6 12 -5 1 8 -7 9 -42 31 -78 48 -35 18 -62 35
-59 38 3 3 -7 20 -21 39 -14 18 -23 33 -21 33 3 0 24 -7 47 -15 58 -20 67 -19
87 11 16 25 16 27 0 39 -17 12 -25 51 -9 41 4 -2 14 -1 22 4 11 7 7 13 -20 25
l-35 16 38 -4 c32 -3 36 0 31 15 -5 16 -2 17 20 8 35 -13 33 -2 -6 32 -18 16
-28 27 -23 24 30 -14 34 10 20 109 -8 55 -15 103 -15 107 0 4 13 3 30 -2 18
-5 32 -5 36 1 3 6 25 9 47 7 l42 -3 -1 57 c-2 74 -30 120 -85 142 -28 11 -44
26 -52 45 -5 15 -22 33 -36 39 -49 23 -75 52 -78 89 -1 23 -14 47 -37 73 -29
32 -34 44 -30 72 5 32 3 34 -51 57 -71 31 -105 57 -105 83 0 24 -47 68 -73 68
-10 0 -16 4 -13 9 7 11 -17 21 -50 21 -28 0 -30 7 -8 38 16 23 16 23 -33 23
-26 0 -84 3 -129 5 -76 5 -83 7 -113 40 -18 19 -42 34 -54 34 -12 0 -32 3 -45
6 l-23 7 21 19 c16 15 18 23 10 33 -13 15 0 48 23 62 7 4 26 25 41 45 16 22
39 39 57 43 16 4 31 11 34 16 4 5 22 9 41 9 19 0 49 7 66 16 23 12 36 13 53 6
15 -7 48 -7 103 0 65 8 83 14 87 29 4 10 3 24 0 29 -4 6 -9 27 -11 47 -3 21
-11 44 -19 53 -8 9 -15 26 -15 39 0 12 -7 24 -15 27 -18 7 -20 34 -2 34 9 0 8
3 -2 9 -11 7 -11 13 3 32 9 13 16 31 16 39 0 9 15 32 33 52 55 62 74 111 46
120 -15 5 10 46 32 53 9 3 17 16 17 28 0 34 79 162 128 207 24 22 44 44 44 49
0 5 25 12 55 16 51 6 55 8 49 28 -9 31 -73 107 -89 107 -7 0 -15 -6 -17 -12
-3 -8 -9 -5 -16 9 -10 17 -8 30 8 65 26 57 27 152 1 194 -13 22 -16 35 -9 48
7 13 5 23 -7 36 -15 16 -16 34 -11 127 4 59 7 132 7 161 0 28 3 52 8 52 9 0
26 48 23 62 -1 4 4 5 12 2 19 -7 26 6 30 56 2 23 9 47 15 53 6 6 11 17 11 23
0 14 57 74 71 74 5 0 9 8 9 18 0 11 11 24 25 30 14 6 25 16 25 22 0 5 7 10 15
10 8 0 15 5 15 10 0 6 7 10 15 10 8 0 15 5 15 12 0 6 7 20 17 30 13 14 13 18
2 18 -9 1 -5 8 10 21 20 16 26 32 29 80 l4 59 -3686 0 -3686 0 0 -1976z m287
1744 c18 -7 33 -16 33 -20 0 -4 18 -8 40 -8 22 0 40 -4 40 -10 0 -5 6 -10 13
-10 8 0 33 -13 55 -30 23 -16 51 -30 61 -30 11 0 28 -13 38 -30 12 -22 25 -30
45 -30 15 0 30 -4 33 -10 3 -5 14 -10 24 -10 9 0 27 -13 39 -30 26 -34 27 -41
7 -34 -16 7 -155 -14 -170 -26 -22 -15 -92 -38 -139 -44 -27 -4 -53 -9 -58
-12 -5 -3 -7 0 -6 7 2 8 -13 17 -34 23 -33 8 -38 14 -40 40 -1 17 -2 39 -2 49
-1 10 -8 23 -16 28 -11 8 -12 12 -2 16 14 6 16 59 2 68 -5 3 -10 17 -10 31 0
15 -6 24 -15 24 -8 0 -15 5 -15 10 0 6 7 10 15 10 8 0 15 9 15 20 0 23 3 24
47 8z m491 -338 c24 -6 64 -12 90 -15 25 -3 53 -11 61 -19 12 -13 6 -15 -55
-12 -72 3 -228 23 -254 32 -13 4 -13 6 0 14 20 13 104 12 158 0z m-40 -54 c11
-12 -6 -14 -123 -20 -66 -4 -136 -9 -155 -11 -41 -6 -23 4 50 29 43 14 214 16
228 2z m72 -16 c0 -5 -5 -10 -11 -10 -5 0 -7 5 -4 10 3 6 8 10 11 10 2 0 4 -4
4 -10z m-10 -39 c0 -10 -58 -23 -112 -26 -50 -2 -39 7 25 21 68 15 87 16 87 5z
m98 -47 c78 -19 110 -41 75 -50 -12 -3 -52 -21 -89 -40 -74 -37 -110 -42 -140
-19 -19 15 -19 15 4 35 24 20 22 40 -4 40 -23 0 -16 18 14 34 35 20 58 20 140
0z m217 -12 c11 -3 47 -23 80 -44 l60 -38 -35 -1 c-39 -1 -144 -26 -118 -28 9
0 28 -6 41 -12 22 -10 24 -15 17 -43 -16 -61 -19 -116 -7 -116 7 0 35 7 62 15
28 9 89 18 137 22 84 6 89 5 130 -22 36 -23 88 -71 88 -81 0 -1 -33 -2 -72 -2
-82 1 -275 -36 -328 -63 -20 -9 -52 -20 -73 -24 -20 -4 -41 -13 -48 -21 -6 -8
-17 -14 -23 -14 -6 0 -28 -9 -48 -20 -29 -15 -48 -18 -85 -14 -64 9 -83 26
-79 73 4 44 19 53 149 87 132 35 167 46 167 54 0 7 -117 92 -182 132 -27 17
-28 17 -39 -5 -7 -12 -14 -34 -15 -49 -2 -16 -10 -41 -18 -57 -9 -16 -13 -31
-10 -33 3 -3 -4 -8 -16 -11 -11 -3 -23 -1 -26 4 -3 5 -9 7 -13 4 -5 -2 -16 4
-26 15 -10 11 -24 20 -31 20 -7 0 -27 12 -44 26 -23 20 -28 29 -18 35 7 5 13
16 13 26 0 10 9 19 20 21 11 2 49 12 85 23 36 10 108 21 160 24 52 3 96 8 98
10 2 2 -13 12 -35 23 l-38 20 28 11 c16 6 33 11 38 11 15 0 10 18 -8 29 -16 9
-16 12 -3 21 8 5 22 7 30 4 8 -4 24 -9 35 -12z m-425 -61 c0 -5 -8 -11 -17
-15 -44 -14 -138 -75 -141 -90 -3 -12 -12 -16 -30 -14 -31 4 -42 28 -12 28 12
0 18 5 15 10 -3 6 -1 10 4 10 23 0 10 22 -19 31 -33 12 -32 11 -24 33 5 13 25
16 115 16 60 0 109 -4 109 -9z m640 -81 c4 0 13 -14 19 -32 20 -57 -12 -57
-89 1 l-35 26 35 6 c19 4 41 5 48 3 8 -2 17 -4 22 -4z m-725 -120 c-3 -5 -13
-10 -21 -10 -8 0 -12 5 -9 10 3 6 13 10 21 10 8 0 12 -4 9 -10z m1070 -199
c29 -18 125 -104 125 -112 0 -2 -46 -4 -103 -4 -91 0 -112 -4 -192 -34 -50
-19 -106 -44 -125 -56 -19 -12 -44 -25 -56 -29 -12 -3 -50 -27 -85 -51 l-64
-45 -30 33 c-91 101 -95 107 -83 132 13 29 69 57 243 121 136 50 182 60 280
63 43 1 68 -4 90 -18z m229 -226 c35 -26 203 -170 216 -185 3 -3 21 -17 42
-32 20 -15 42 -34 50 -41 7 -7 34 -28 61 -47 26 -18 47 -37 47 -42 0 -4 6 -8
13 -8 6 0 24 -10 40 -23 40 -32 91 -71 188 -140 47 -34 130 -93 183 -132 86
-61 134 -98 198 -150 9 -7 19 -11 23 -7 3 3 20 -1 38 -10 67 -34 124 -58 135
-58 7 0 12 -4 12 -10 0 -5 7 -10 15 -10 8 0 15 -5 15 -11 0 -5 5 -7 11 -4 10
7 116 -59 189 -118 19 -15 40 -32 47 -37 7 -6 17 -10 24 -10 6 0 24 -10 41
-21 17 -12 73 -44 127 -71 53 -28 147 -84 210 -125 63 -42 139 -89 170 -105
86 -45 141 -82 138 -92 -2 -5 -24 -21 -50 -35 -26 -14 -47 -31 -47 -38 0 -7
-4 -13 -10 -13 -21 0 -25 -2 -42 -17 -9 -8 -22 -13 -29 -11 -7 2 -23 -6 -37
-19 -14 -13 -35 -23 -48 -23 -13 0 -28 -8 -33 -17 -6 -10 -11 -13 -11 -8 0 6
-5 3 -10 -5 -9 -13 -12 -13 -21 3 -9 15 -13 16 -25 6 -9 -7 -11 -15 -5 -18 6
-4 6 -12 1 -21 -8 -13 -10 -12 -10 3 0 9 -2 17 -4 17 -2 0 -13 3 -23 7 -10 3
-15 3 -11 -1 8 -10 -11 -66 -23 -66 -5 0 -4 9 3 20 17 26 0 40 -18 15 -13 -17
-16 -18 -24 -5 -6 10 -3 20 11 33 26 24 25 41 -1 27 -11 -6 -26 -8 -32 -4 -7
5 -9 0 -6 -14 3 -12 0 -26 -7 -32 -20 -17 -30 -71 -15 -80 22 -14 2 -26 -35
-22 -33 4 -35 6 -21 21 8 9 16 27 19 41 2 14 2 19 0 13 -7 -20 -23 -15 -23 7
0 10 8 24 18 29 9 6 11 11 5 11 -7 0 -22 -9 -34 -21 l-21 -21 7 23 c6 18 4 21
-9 16 -22 -9 -46 2 -46 20 0 8 5 11 10 8 17 -10 11 4 -9 24 -14 14 -21 16 -25
8 -3 -7 -3 0 0 15 5 20 2 30 -10 34 -9 3 -14 10 -11 15 3 4 -4 13 -15 19 -15
8 -20 21 -20 50 0 25 -5 40 -12 41 -7 1 -41 1 -75 1 -51 0 -63 3 -65 17 -3 35
-5 57 -7 84 -1 22 -6 27 -27 27 -21 0 -24 -4 -19 -20 5 -14 2 -20 -9 -20 -9 0
-16 2 -16 4 0 2 -3 11 -6 20 -3 9 -1 16 6 16 21 0 36 25 39 68 2 36 0 42 -17
42 -13 0 -26 -12 -36 -35 -21 -44 -36 -53 -36 -21 0 26 38 73 54 68 4 -1 23 2
41 8 26 8 34 18 37 41 3 16 1 32 -4 35 -5 4 -7 12 -4 20 3 7 -2 30 -11 51 -13
32 -17 35 -23 19 -4 -14 -9 -16 -14 -8 -10 17 -26 15 -26 -3 0 -8 -5 -15 -11
-15 -6 0 -9 12 -7 28 4 32 -25 39 -30 7 -2 -11 -14 -30 -25 -43 -18 -20 -19
-24 -7 -32 17 -10 26 -4 33 25 4 18 5 18 6 -2 1 -16 7 -23 22 -23 19 0 19 -1
5 -22 -14 -20 -14 -24 1 -40 19 -21 10 -37 -10 -19 -8 6 -22 9 -31 5 -18 -7
-21 7 -5 23 7 7 -3 19 -36 42 -50 34 -82 39 -91 16 -12 -29 -22 -14 -18 25 3
34 1 40 -16 40 -12 0 -20 7 -20 18 -1 15 -2 15 -13 1 -22 -28 -56 -42 -73 -28
-11 9 -14 8 -14 -4 0 -9 6 -17 13 -20 6 -2 1 -2 -13 0 -18 3 -33 -4 -50 -22
-23 -25 -50 -33 -50 -16 0 5 -17 11 -38 14 -21 4 -46 13 -57 21 -17 12 -18 16
-5 32 12 13 12 18 2 22 -7 2 -19 10 -26 18 -12 11 -16 11 -26 -2 -24 -28 -82
9 -77 51 1 11 -4 20 -11 20 -12 0 -26 22 -80 132 -28 56 -58 82 -84 75 -5 -1
-8 5 -8 13 0 19 -24 19 -40 0 -7 -8 -16 -15 -21 -15 -5 0 -9 7 -9 15 0 22 -18
18 -46 -10 -14 -14 -30 -22 -36 -19 -7 5 -8 2 -3 -6 6 -10 2 -12 -16 -7 -13 4
-29 7 -35 7 -7 0 -14 9 -17 20 -6 25 -27 27 -27 3 0 -17 -66 -83 -83 -83 -4 0
-5 -11 -1 -25 7 -29 -9 -33 -28 -7 -7 9 -26 26 -41 36 -20 12 -27 24 -24 37 3
12 0 19 -9 19 -8 0 -14 7 -14 15 0 8 -4 15 -10 15 -5 0 -10 6 -10 14 0 8 -20
36 -45 62 -25 25 -45 50 -45 55 0 4 -17 27 -37 51 -26 29 -46 43 -63 43 -18 0
-26 6 -28 23 -2 12 -10 22 -18 22 -17 0 -100 84 -117 120 -10 20 -10 30 0 50
15 30 17 57 3 65 -5 3 -10 15 -10 26 0 10 5 19 10 19 6 0 10 9 10 20 0 17 7
20 50 20 28 0 50 5 50 10 0 6 4 10 9 10 10 0 71 55 71 64 0 17 38 46 60 47 14
0 33 3 42 7 38 15 84 6 122 -23z m296 -765 c0 -13 -11 -13 -30 0 -12 8 -11 10
8 10 12 0 22 -4 22 -10z m747 -295 c9 -25 -4 -29 -17 -6 -7 15 -7 21 0 21 6 0
13 -7 17 -15z m-32 -25 c3 -5 1 -10 -4 -10 -6 0 -11 5 -11 10 0 6 2 10 4 10 3
0 8 -4 11 -10z m-5 -100 c0 -5 -4 -10 -10 -10 -5 0 -10 5 -10 10 0 6 5 10 10
10 6 0 10 -4 10 -10z m235 -130 c-3 -5 -10 -10 -16 -10 -5 0 -9 5 -9 10 0 6 7
10 16 10 8 0 12 -4 9 -10z m505 -420 c0 -5 -5 -10 -11 -10 -5 0 -7 5 -4 10 3
6 8 10 11 10 2 0 4 -4 4 -10z m-113 -32 c-3 -8 -6 -5 -6 6 -1 11 2 17 5 13 3
-3 4 -12 1 -19z m113 -2 c0 -11 -19 -15 -25 -6 -3 5 1 10 9 10 9 0 16 -2 16
-4z m12 -71 c3 -14 1 -25 -3 -25 -5 0 -9 5 -9 11 0 5 -4 7 -10 4 -5 -3 -10 3
-10 14 0 30 27 26 32 -4z m-112 6 c0 -5 -9 -11 -20 -14 -22 -6 -28 8 -7 16 19
8 27 8 27 -2z m-136 -87 c9 -8 16 -20 16 -25 0 -6 4 -8 9 -4 6 3 6 -7 0 -27
-5 -18 -9 -34 -9 -35 0 -2 -11 -3 -25 -3 -23 0 -25 3 -19 28 4 15 11 33 17 40
9 11 3 16 -15 13 -5 0 -8 6 -8 14 0 19 14 19 34 -1z m586 -284 c0 -5 -2 -10
-4 -10 -3 0 -8 5 -11 10 -3 6 -1 10 4 10 6 0 11 -4 11 -10z m751 -57 c-18 -31
-51 -68 -51 -58 0 17 39 75 50 75 7 0 8 -6 1 -17z m209 0 c0 -10 -4 -14 -8 -8
-4 6 -11 13 -16 18 -5 4 -2 7 7 7 10 0 17 -8 17 -17z m-53 -75 c-3 -8 -6 -5
-6 6 -1 11 2 17 5 13 3 -3 4 -12 1 -19z m-112 -198 c-9 -18 -19 -30 -21 -27
-3 2 3 18 13 35 23 40 29 33 8 -8z m-35 -80 c-16 -31 -23 -19 -9 16 6 16 13
24 16 17 2 -7 -1 -22 -7 -33z m85 -19 c-8 -17 -18 -31 -21 -31 -3 0 -3 4 0 9
3 4 10 21 16 36 6 15 13 25 16 22 3 -3 -2 -19 -11 -36z m-22 -61 c-3 -12 -8
-19 -11 -16 -5 6 5 36 12 36 2 0 2 -9 -1 -20z m2016 -114 c13 -14 33 -26 45
-28 11 -2 22 -12 25 -23 3 -17 2 -18 -14 -5 -10 8 -36 20 -59 25 -31 8 -42 15
-44 33 -4 30 18 29 47 -2z m191 -171 c20 13 9 -24 -17 -57 -41 -49 -45 -52
-89 -77 -52 -29 -81 -23 -33 6 19 12 45 34 59 48 24 25 24 27 9 70 l-16 43 38
-20 c21 -11 43 -17 49 -13z m-5635 -71 c41 -27 33 -40 -50 -91 -34 -21 -65
-33 -84 -33 -16 0 -91 65 -91 79 0 8 58 43 85 52 39 13 115 9 140 -7z m3650
-150 c-20 -77 -56 -208 -81 -292 -25 -85 -43 -156 -40 -160 3 -3 6 0 6 7 0 7
4 10 8 7 9 -6 104 89 119 119 6 11 14 38 18 60 8 47 13 57 25 50 5 -3 4 -20
-2 -38 -5 -17 -11 -39 -13 -47 -7 -40 -30 -77 -80 -125 -58 -57 -115 -143
-115 -175 0 -21 15 -27 25 -10 3 6 13 10 20 10 11 0 13 -8 9 -29 -5 -26 1 -36
50 -84 31 -30 56 -52 56 -51 0 2 9 -4 20 -14 12 -9 24 -16 28 -16 22 5 81 -39
96 -71 12 -24 24 -35 39 -35 17 0 19 -2 8 -9 -11 -7 -6 -13 20 -26 27 -14 48
-16 111 -12 65 5 78 4 78 -8 0 -8 -4 -15 -9 -15 -5 0 -17 -7 -25 -16 -18 -18
-104 -23 -114 -7 -11 17 -64 40 -109 48 -57 9 -82 32 -91 81 -6 34 -18 52 -72
100 -36 33 -80 70 -97 82 -18 13 -33 29 -33 36 0 16 -40 32 -100 41 -52 7 -63
14 -110 75 -19 25 -42 51 -52 58 -10 7 -18 18 -18 24 0 6 6 5 16 -3 13 -10 17
-10 24 0 5 9 17 11 34 7 28 -7 36 -26 11 -26 -21 0 -19 -9 7 -32 l22 -19 12
48 c7 26 13 52 14 56 0 5 5 5 10 2 6 -4 10 7 10 24 0 17 5 31 11 31 6 0 8 -8
4 -19 -6 -19 12 -33 49 -36 16 -2 18 4 14 52 -4 42 -2 53 9 49 7 -3 13 1 13 9
0 7 11 26 24 42 25 30 83 180 93 238 3 20 11 35 19 35 8 0 14 6 14 14 0 17 42
118 47 113 2 -3 -12 -67 -32 -143z m-3367 125 c60 -15 71 -25 50 -45 -12 -12
-20 -13 -34 -6 -11 6 -40 13 -67 17 -55 8 -68 21 -35 34 31 13 32 13 86 0z
m-1004 -98 c8 -12 -3 -41 -15 -41 -5 0 -9 11 -9 25 0 25 14 34 24 16z m1271
-31 c3 -5 -1 -10 -10 -10 -9 0 -13 5 -10 10 3 6 8 10 10 10 2 0 7 -4 10 -10z
m-530 -40 c-7 -12 -45 -19 -45 -9 0 5 6 18 13 29 11 19 13 19 24 4 7 -9 10
-20 8 -24z m-527 -63 c9 -7 10 -13 1 -24 -10 -11 -7 -18 12 -36 20 -18 21 -22
7 -25 -19 -4 -59 15 -56 26 1 4 -2 19 -6 34 -13 46 3 55 42 25z m6372 3 c0 -5
-10 -15 -22 -21 -13 -6 -32 -19 -43 -29 -11 -10 -31 -21 -45 -24 l-25 -7 28
23 c67 56 83 67 95 68 6 0 12 -4 12 -10z m-1812 -31 c3 -11 2 -11 -6 -1 -7 11
-14 8 -31 -14 -24 -31 -29 -20 -5 14 17 25 35 25 42 1z m-3293 -33 l30 -13
-42 -26 c-51 -32 -69 -34 -83 -6 -10 17 -8 24 11 40 26 22 42 23 84 5z m-1147
-103 c-4 -25 10 -43 27 -36 8 3 15 1 15 -5 0 -6 3 -17 6 -25 9 -24 -34 -29
-50 -5 -12 16 -17 18 -34 7 -12 -7 -17 -19 -14 -31 3 -14 0 -17 -12 -12 -19 7
-20 22 -3 61 23 53 72 88 65 46z m-893 -82 c7 -18 7 -18 -37 -26 -43 -8 -48 2
-21 39 14 19 21 21 35 12 10 -6 20 -17 23 -25z m95 18 c0 -5 -9 -9 -20 -9 -11
0 -20 -7 -20 -15 0 -8 -5 -15 -10 -15 -18 0 -6 34 15 46 21 11 35 9 35 -7z
m3587 -96 c-3 -10 -5 -2 -5 17 0 19 2 27 5 18 2 -10 2 -26 0 -35z m1366 -31
c-3 -29 -10 -52 -16 -52 -6 0 -7 18 -3 46 3 26 6 54 6 62 0 11 3 13 10 6 5 -5
7 -32 3 -62z m-210 43 c-3 -9 -8 -14 -10 -11 -3 3 -2 9 2 15 9 16 15 13 8 -4z
m-3967 -20 c3 -14 12 -25 20 -25 8 0 14 -8 14 -19 0 -10 7 -24 15 -31 35 -29
7 -54 -30 -26 -13 10 -28 11 -49 5 -57 -16 -96 -11 -105 14 -10 25 -3 46 9 26
6 -8 9 -5 12 12 2 17 16 30 48 46 57 28 58 28 66 -2z m4486 -64 c-5 -15 -11
-18 -22 -10 -11 8 -12 12 -2 16 6 2 12 14 12 26 1 19 2 20 10 5 6 -9 7 -25 2
-37z m-4429 -219 c10 -2 25 2 33 9 11 9 14 8 14 -2 -1 -42 -39 -49 -84 -16
-17 12 -18 16 -5 30 13 13 15 13 19 -2 3 -9 13 -17 23 -19z m483 17 c7 -11
-24 -38 -43 -39 -12 0 -18 31 -8 41 9 9 45 7 51 -2z m5907 -23 c8 -21 -17 -61
-41 -64 -26 -4 -26 -4 -7 42 15 36 39 47 48 22z m-6049 -12 c9 -3 16 -15 16
-25 0 -11 9 -27 20 -36 11 -10 20 -23 20 -29 0 -15 -44 -27 -48 -14 -2 6 -12
10 -22 10 -28 0 -33 27 -14 88 4 14 6 14 28 6z m76 -3 c0 -5 -9 -11 -19 -14
-14 -3 -18 -1 -14 9 6 15 33 19 33 5z m-510 -52 c0 -19 -5 -29 -15 -29 -15 0
-22 50 -9 63 12 12 24 -4 24 -34z m887 -6 c-4 -3 -13 0 -22 7 -12 10 -13 16
-3 27 11 13 14 12 22 -6 5 -12 6 -24 3 -28z m-687 17 c0 -5 -7 -10 -16 -10 -8
0 -12 5 -9 10 3 6 10 10 16 10 5 0 9 -4 9 -10z m-432 -38 c-2 -9 -13 -18 -26
-20 -23 -4 -25 0 -16 35 5 19 9 21 26 12 10 -6 18 -18 16 -27z m371 12 c2 -10
8 -25 14 -33 9 -11 11 -80 3 -89 -7 -6 -65 31 -60 39 3 5 -2 12 -10 15 -24 9
-19 33 10 46 18 8 24 17 20 30 -3 12 0 18 7 15 7 -2 14 -12 16 -23z m401 -18
c0 -8 -9 -16 -20 -19 -17 -4 -20 0 -20 24 0 27 2 29 20 19 11 -6 20 -17 20
-24z m-260 -22 c0 -14 -9 -39 -21 -55 -20 -29 -20 -31 -3 -50 14 -16 15 -24 6
-44 -7 -15 -8 -27 -2 -30 6 -4 10 -11 10 -16 0 -6 -5 -7 -11 -4 -5 4 -19 -1
-30 -11 -27 -24 -54 -8 -54 32 0 24 4 29 23 26 15 -1 22 2 19 10 -2 7 -12 13
-23 13 -10 0 -19 6 -18 13 1 6 2 21 3 33 1 15 6 19 17 15 19 -7 43 20 44 50 0
20 17 44 32 44 4 0 8 -12 8 -26z m-213 -67 c-6 -19 -22 -6 -25 20 -2 27 -2 27
13 8 8 -10 14 -23 12 -28z m-207 4 c0 -6 -4 -13 -10 -16 -5 -3 -10 1 -10 9 0
9 5 16 10 16 6 0 10 -4 10 -9z m125 -31 c8 -26 -28 -83 -43 -68 -8 8 -9 5 -5
-11 3 -12 1 -21 -6 -21 -14 0 -15 37 -1 45 6 3 10 19 10 35 0 44 10 63 26 49
7 -6 16 -19 19 -29z m1235 10 c-18 -11 -22 -7 -14 14 5 13 10 14 18 6 8 -8 7
-13 -4 -20z m-1106 2 c8 -13 -11 -35 -23 -28 -16 10 -14 36 3 36 8 0 17 -4 20
-8z m4870 -29 c5 -25 10 -217 7 -251 -1 -8 -10 -12 -23 -10 -22 3 -23 6 -23
123 0 66 2 130 4 143 5 31 28 28 35 -5z m-4824 -9 c0 -24 -1 -24 -17 -9 -14
14 -14 18 -2 26 19 12 19 12 19 -17z m378 0 c14 -15 14 -16 -3 -13 -10 2 -20
10 -23 17 -5 17 6 15 26 -4z m-692 -6 c7 -12 -21 -38 -42 -38 -6 0 -14 11 -16
25 -5 22 -2 25 23 25 15 0 31 -5 35 -12z m4508 -36 c-16 -4 -44 15 -44 29 0 4
13 0 30 -9 21 -12 25 -18 14 -20z m-4442 -74 c-6 -6 -19 -7 -29 -4 -17 7 -17
8 0 20 9 7 17 19 18 27 0 8 5 4 11 -9 8 -16 8 -26 0 -34z m5350 -4 c11 -25 19
-47 16 -49 -10 -10 -46 41 -53 74 -10 46 9 33 37 -25z m-5504 9 c-2 -23 -8
-29 -35 -31 -25 -3 -33 1 -33 13 0 9 9 19 20 22 11 3 20 9 20 14 0 5 7 9 16 9
11 0 14 -8 12 -27z m270 18 c11 -7 10 -16 -7 -46 -20 -38 -20 -38 -29 -14 -7
17 -6 25 3 27 7 2 11 11 8 23 -6 20 4 24 25 10z m144 -29 c8 -28 12 -31 33
-26 20 5 24 3 19 -10 -3 -9 -13 -16 -21 -16 -20 0 -63 50 -63 73 0 29 23 14
32 -21z m78 6 c0 -12 -3 -18 -7 -14 -11 10 -12 36 -2 36 5 0 9 -10 9 -22z
m5706 -18 c8 0 12 -4 9 -10 -8 -13 1 -13 25 0 15 8 25 3 54 -26 37 -37 39 -54
6 -54 -10 0 -22 -4 -25 -10 -3 -5 -22 -10 -40 -10 -19 0 -55 -11 -80 -25 -25
-14 -45 -23 -45 -19 0 3 -8 -4 -18 -16 -17 -21 -84 -41 -110 -32 -10 3 -10 7
-1 18 15 19 -1 19 -46 0 -22 -10 -44 -12 -62 -7 -26 8 -26 9 -8 17 11 4 35 18
54 31 19 13 44 23 57 23 12 0 25 4 28 9 3 5 16 11 29 15 40 10 138 79 124 88
-9 5 -7 11 8 22 17 13 20 13 23 0 2 -8 10 -14 18 -14z m341 -22 c-3 -7 -5 -2
-5 12 0 14 2 19 5 13 2 -7 2 -19 0 -25z m-5010 -10 c-3 -7 -5 -2 -5 12 0 14 2
19 5 13 2 -7 2 -19 0 -25z m4923 12 c18 -16 20 -20 7 -20 -10 0 -17 -7 -17
-15 0 -16 -30 -35 -54 -35 -9 0 -16 5 -16 10 0 6 9 10 19 10 11 0 23 5 27 12
4 7 3 8 -4 4 -15 -9 -15 9 -2 35 13 23 12 23 40 -1z m70 -4 c0 -8 -4 -17 -9
-21 -12 -7 -24 12 -16 25 9 15 25 12 25 -4z m-6353 -38 c-3 -8 -6 -5 -6 6 -1
11 2 17 5 13 3 -3 4 -12 1 -19z m403 -28 c0 -5 -4 -10 -10 -10 -5 0 -10 5 -10
10 0 6 5 10 10 10 6 0 10 -4 10 -10z m67 -141 c-16 -26 -24 -24 -30 8 -7 38 1
48 23 28 16 -14 17 -21 7 -36z m5929 31 c33 0 31 -16 -3 -23 -34 -6 -53 1 -53
20 0 10 6 13 16 9 9 -3 27 -6 40 -6z m-231 -100 c0 -12 -11 -14 -48 -12 -42 3
-48 0 -56 -22 -13 -33 -31 -42 -31 -16 0 11 7 23 15 26 8 4 15 13 15 21 0 9 6
13 15 10 8 -4 17 -2 21 4 9 16 69 6 69 -11z m94 6 c10 -12 8 -17 -8 -26 -19
-9 -21 -8 -21 15 0 28 12 32 29 11z m-4409 -6 c0 -5 -7 -10 -16 -10 -8 0 -12
5 -9 10 3 6 10 10 16 10 5 0 9 -4 9 -10z m3940 -14 c0 -26 -22 -50 -35 -38 -4
4 -3 -2 2 -12 13 -23 6 -53 -14 -60 -21 -8 -36 3 -29 21 5 12 1 14 -14 10 -16
-4 -20 0 -20 19 0 13 3 23 8 22 4 -1 17 3 30 10 12 7 26 11 31 8 4 -3 6 6 3
19 -3 20 0 25 17 25 15 0 21 -6 21 -24z m-485 -6 c-28 -12 -37 -12 -30 0 3 6
16 10 28 9 21 0 21 -1 2 -9z m1151 -18 c-1 -19 -6 -28 -18 -28 -18 0 -26 35
-11 49 15 16 30 5 29 -21z m-1284 -4 c-19 -19 -15 -25 30 -52 28 -17 37 -27
28 -30 -13 -4 -81 -15 -104 -16 -5 0 -4 -6 2 -12 8 -10 -2 -12 -49 -10 -52 3
-58 2 -53 -13 5 -11 2 -16 -7 -15 -35 5 -43 -1 -19 -15 14 -8 21 -15 15 -15
-5 -1 -1 -5 10 -10 18 -8 18 -9 -5 -9 -15 -1 -31 4 -37 10 -5 5 -29 10 -52 11
-52 1 -53 14 -1 23 22 4 40 11 40 16 0 12 -24 11 -54 -2 -20 -10 -28 -9 -42 6
-15 14 -15 18 -3 26 8 5 22 9 32 9 9 0 17 4 17 10 0 5 15 16 33 24 l32 15 -32
-6 c-18 -3 -40 -2 -50 2 -29 11 33 32 114 39 55 5 137 18 163 25 2 0 -1 -4 -8
-11z m178 2 c0 -5 -4 -10 -10 -10 -5 0 -10 5 -10 10 0 6 5 10 10 10 6 0 10 -4
10 -10z m550 -9 c0 -6 -4 -13 -10 -16 -5 -3 -10 1 -10 9 0 9 5 16 10 16 6 0
10 -4 10 -9z m-263 -23 c-3 -8 -6 -5 -6 6 -1 11 2 17 5 13 3 -3 4 -12 1 -19z
m683 2 c-6 -11 -17 -20 -24 -20 -8 0 -21 -10 -29 -22 -15 -22 -16 -22 -16 -3
0 11 13 29 32 42 41 27 50 28 37 3z m-1493 -4 c4 -7 15 -16 23 -19 8 -3 -2 -6
-22 -6 -32 -1 -38 2 -38 19 0 23 25 27 37 6z m1183 -11 c-9 -10 -9 -15 -1 -16
6 -1 16 -3 21 -4 6 -1 16 -3 23 -4 8 -1 8 -4 -2 -10 -9 -6 -22 -6 -31 -1 -12
6 -17 5 -17 -6 0 -7 7 -14 16 -14 11 0 9 -4 -7 -16 -12 -8 -37 -14 -55 -12
l-32 3 30 15 c16 8 31 24 33 35 5 34 11 45 23 45 8 0 8 -4 -1 -15z m138 -25
c-6 -19 -22 -44 -35 -56 -13 -12 -23 -26 -23 -31 0 -6 -11 -13 -25 -16 -24 -4
-25 -2 -20 29 5 35 42 81 61 76 6 -1 19 6 30 17 25 24 27 21 12 -19z m-228 5
c-7 -9 -15 -13 -19 -10 -3 3 1 10 9 15 21 14 24 12 10 -5z m-4119 -27 c-2 -7
-4 -22 -5 -33 -1 -21 -46 -36 -46 -16 0 6 5 11 10 11 6 0 10 11 10 25 0 19 -4
23 -17 18 -15 -6 -16 -5 -3 9 17 18 57 8 51 -14z m2959 12 c-15 -11 -26 -15
-29 -8 -4 12 17 28 39 28 10 0 7 -7 -10 -20z m1606 5 c19 -14 18 -14 -3 -15
-26 0 -26 0 -13 -34 8 -23 7 -26 -11 -26 -29 0 -69 -29 -69 -51 0 -19 -17 -35
-28 -24 -3 3 0 10 8 15 22 14 0 12 -56 -5 -27 -8 -50 -15 -51 -15 -1 0 0 7 4
15 3 9 7 14 10 12 9 -9 84 14 101 31 9 9 31 27 47 39 22 16 25 21 11 19 -10
-1 -24 -10 -31 -20 -11 -14 -60 -27 -112 -29 -7 0 -13 -4 -13 -9 0 -17 -30
-40 -45 -34 -8 3 -21 -2 -30 -10 -11 -12 -15 -12 -15 -2 1 16 35 58 48 58 5 0
23 7 38 15 20 10 23 15 12 15 -25 0 -22 15 7 34 35 23 59 22 45 -3 -13 -26 8
-41 25 -18 9 12 15 13 23 5 13 -13 38 3 47 33 8 23 24 24 51 4z m82 -26 c-20
-13 -45 -11 -52 6 -4 11 1 15 19 15 13 0 27 6 32 13 5 8 9 7 11 -7 2 -10 -2
-22 -10 -27z m-1640 2 c10 -6 9 -10 -7 -14 -14 -3 -21 0 -21 9 0 16 9 18 28 5z
m943 -12 c-12 -12 -24 -19 -27 -16 -7 6 25 37 39 37 6 0 1 -9 -12 -21z m-481
-13 c0 -2 -7 -6 -15 -10 -8 -3 -15 -1 -15 4 0 6 7 10 15 10 8 0 15 -2 15 -4z
m1160 -10 c0 -8 -7 -16 -15 -20 -8 -3 -15 -10 -15 -17 0 -6 7 -9 15 -5 8 3 15
1 15 -5 0 -6 -8 -9 -18 -7 -11 2 -27 -4 -37 -12 -14 -11 -19 -12 -22 -2 -8 22
-29 12 -44 -20 -8 -18 -24 -37 -36 -43 -12 -5 -24 -18 -27 -29 -3 -11 -7 -18
-10 -15 -11 10 7 49 25 54 24 8 56 65 37 65 -7 0 -2 7 11 16 17 12 26 13 34 5
17 -17 27 -13 27 9 0 12 10 24 23 30 31 12 37 12 37 -4z m-547 -33 c7 -9 5
-13 -7 -13 -10 0 -15 4 -12 9 4 5 1 11 -6 13 -7 3 -8 9 -3 18 7 12 9 12 13 0
3 -8 9 -21 15 -27z m-276 21 c-3 -3 -12 -4 -19 -1 -8 3 -5 6 6 6 11 1 17 -2
13 -5z m413 -36 c0 -25 -16 -37 -38 -31 -22 5 -22 7 -6 24 19 22 44 25 44 7z
m-933 -4 c-3 -3 -12 -4 -19 -1 -8 3 -5 6 6 6 11 1 17 -2 13 -5z m1439 -2 c6
-4 13 -15 17 -24 4 -11 12 -15 22 -11 12 4 16 1 13 -13 -2 -14 4 -20 20 -22
18 -3 23 -8 19 -23 -3 -10 -1 -19 4 -19 5 0 9 -4 9 -8 0 -12 -82 -13 -111 -1
-21 8 -34 7 -59 -6 -20 -10 -29 -12 -25 -4 6 8 2 11 -11 7 -11 -3 -25 1 -32 9
-7 7 -8 13 -3 13 5 0 17 8 27 17 15 15 15 18 1 22 -24 9 3 40 42 47 27 6 31 4
31 -15 0 -11 4 -21 9 -21 5 0 8 14 6 30 -4 30 1 36 21 22z m-619 -21 c-3 -14
1 -19 19 -20 56 -4 62 -6 58 -13 -3 -4 1 -8 8 -8 8 -1 6 -6 -6 -15 -20 -15
-12 -20 22 -16 6 1 20 -3 30 -8 14 -8 10 -10 -20 -11 -20 0 -41 -6 -45 -12 -4
-7 -18 -13 -29 -14 -22 0 -25 19 -9 57 3 10 2 20 -4 24 -6 3 -11 1 -11 -4 0
-6 -17 -11 -37 -11 -35 0 -36 1 -17 15 19 14 17 16 -18 19 -30 2 -20 21 12 21
16 1 32 4 36 8 12 12 17 8 11 -12z m-112 -11 c-27 -12 -43 -12 -25 0 8 5 22 9
30 9 10 0 8 -3 -5 -9z m-605 -4 c0 -2 -7 -7 -16 -10 -8 -3 -12 -2 -9 4 6 10
25 14 25 6z m-2940 -11 c0 -2 -10 -10 -22 -16 -21 -11 -22 -11 -9 4 13 16 31
23 31 12z m4110 1 c0 -2 -8 -10 -17 -17 -16 -13 -17 -12 -4 4 13 16 21 21 21
13z m-523 -26 c-1 -12 -8 -20 -19 -20 -20 0 -25 26 -5 33 22 9 26 7 24 -13z
m198 1 c-3 -6 -11 -8 -17 -5 -6 4 -5 9 3 15 16 10 23 4 14 -10z m78 2 c-7 -2
-19 -2 -25 0 -7 3 -2 5 12 5 14 0 19 -2 13 -5z m-1373 -33 c0 -5 -2 -10 -4
-10 -3 0 -8 5 -11 10 -3 6 -1 10 4 10 6 0 11 -4 11 -10z m1130 0 c0 -5 -2 -10
-4 -10 -3 0 -8 5 -11 10 -3 6 -1 10 4 10 6 0 11 -4 11 -10z m-1037 -7 c-7 -2
-19 -2 -25 0 -7 3 -2 5 12 5 14 0 19 -2 13 -5z m1367 -3 c0 -5 -4 -10 -10 -10
-5 0 -10 5 -10 10 0 6 5 10 10 10 6 0 10 -4 10 -10z m170 1 c0 -5 -7 -11 -15
-15 -9 -3 -15 0 -15 9 0 8 7 15 15 15 8 0 15 -4 15 -9z m-298 -36 c-17 -14
-29 -19 -33 -13 -4 6 -11 8 -17 4 -6 -3 -13 -2 -17 4 -3 5 3 10 14 10 11 0 26
6 33 13 7 8 20 12 30 9 14 -3 13 -7 -10 -27z m-4732 -35 c0 -5 -8 -10 -17 -10
-15 0 -16 2 -3 10 19 12 20 12 20 0z m5305 -11 c-4 -5 -12 -9 -18 -8 -9 0 -8
2 1 6 6 2 9 10 6 15 -4 7 -2 8 5 4 6 -4 9 -12 6 -17z m-1025 -44 c0 -16 -6
-25 -15 -25 -9 0 -15 9 -15 25 0 16 6 25 15 25 9 0 15 -9 15 -25z m627 -31
c-3 -3 -12 -4 -19 -1 -8 3 -5 6 6 6 11 1 17 -2 13 -5z m1143 -534 c0 -5 -4
-10 -9 -10 -6 0 -13 5 -16 10 -3 6 1 10 9 10 9 0 16 -4 16 -10z m148 -16 c12
-4 22 -13 22 -20 0 -8 -1 -14 -2 -14 -2 1 -28 9 -58 20 -52 18 -53 19 -20 20
19 0 45 -3 58 -6z m502 -165 c0 -6 -4 -7 -10 -4 -5 3 -10 11 -10 16 0 6 5 7
10 4 6 -3 10 -11 10 -16z m-6657 -39 c12 -1 32 -9 45 -20 20 -17 22 -22 11
-42 -7 -13 -16 -25 -20 -28 -11 -8 -59 -79 -59 -89 0 -5 -11 -16 -25 -25 -14
-9 -25 -22 -25 -29 0 -7 -13 -23 -30 -35 -16 -13 -30 -30 -30 -39 0 -9 -3 -14
-6 -10 -6 5 -44 -6 -109 -33 -11 -5 -48 -14 -83 -21 -46 -9 -62 -16 -58 -25 4
-9 -2 -14 -17 -14 -15 0 -18 3 -9 8 8 6 -1 13 -30 21 -24 8 -63 20 -87 27 -25
8 -51 14 -58 14 -24 0 -45 29 -39 53 8 35 49 77 74 77 12 0 22 4 22 10 0 5 30
18 68 29 37 11 132 53 212 93 140 71 191 89 218 82 8 -2 23 -4 35 -4z m4625
-115 c-3 -3 -9 2 -12 12 -6 14 -5 15 5 6 7 -7 10 -15 7 -18z m540 -25 c10 -17
10 -20 -6 -20 -11 0 -18 8 -19 20 -1 11 1 20 5 20 4 0 13 -9 20 -20z m-735
-52 c-22 -45 -81 -98 -108 -98 -12 0 -28 -7 -35 -15 -7 -8 -26 -15 -42 -15
-29 0 -30 1 -23 33 3 17 8 39 9 47 6 30 73 55 208 79 3 0 -1 -14 -9 -31z m717
-7 c0 -6 -4 -13 -10 -16 -5 -3 -10 1 -10 9 0 9 5 16 10 16 6 0 10 -4 10 -9z
m-189 -50 c-7 -5 -11 -13 -7 -19 9 -15 -15 -21 -43 -10 -22 8 -23 10 -7 21 10
7 29 14 44 15 19 1 23 -1 13 -7z m-102 -44 c-14 -12 -17 -18 -7 -14 12 4 15 2
11 -9 -6 -15 -33 -20 -33 -5 0 5 -3 16 -6 25 -4 11 2 19 17 25 36 13 46 1 18
-22z m131 -28 c0 -5 -7 -6 -15 -3 -8 4 -15 13 -15 21 0 13 3 13 15 3 8 -7 15
-16 15 -21z m-275 -8 c-3 -11 -1 -22 5 -26 16 -10 12 -28 -5 -21 -8 3 -15 0
-15 -7 0 -8 -4 -7 -10 3 -8 13 -10 12 -15 -1 -3 -9 -5 -20 -4 -25 1 -5 -1 -17
-6 -27 -12 -28 11 -47 40 -33 14 6 25 17 25 24 0 16 51 13 63 -3 4 -6 11 -4
18 5 9 13 10 12 5 -3 -3 -10 -6 -22 -6 -27 0 -4 -9 -10 -20 -13 -15 -4 -25 2
-36 21 -14 25 -14 26 -8 3 5 -19 3 -23 -9 -18 -9 3 -30 -1 -47 -10 -29 -14
-32 -14 -43 2 -7 9 -25 18 -41 19 -23 3 -27 0 -23 -15 4 -14 0 -19 -14 -19
-12 0 -20 -8 -20 -20 -1 -11 -2 -25 -3 -32 -1 -6 6 -13 14 -15 12 -4 12 -3 2
5 -11 7 -11 10 2 15 9 4 16 3 16 -2 0 -4 7 -8 16 -8 11 0 14 7 10 23 -5 19 -2
22 21 19 15 -1 29 -8 31 -14 6 -17 53 -13 68 7 12 16 13 15 8 -4 -4 -14 0 -23
11 -28 9 -3 13 -2 10 4 -3 6 -2 10 4 10 18 0 22 -20 7 -35 -8 -8 -19 -15 -24
-15 -6 0 -12 -6 -15 -12 -2 -7 -8 -10 -12 -6 -4 4 -2 14 5 23 11 13 9 15 -13
15 -14 0 -31 -8 -36 -17 -6 -10 -11 -12 -11 -5 0 6 -4 12 -9 12 -4 0 -6 -11
-3 -25 3 -18 0 -25 -12 -25 -9 0 -16 -7 -16 -15 0 -8 -6 -12 -13 -9 -7 2 -21
-2 -32 -11 -16 -12 -18 -16 -6 -24 8 -5 11 -16 8 -25 -3 -8 -2 -18 3 -21 6 -4
10 -15 10 -25 0 -11 9 -24 21 -31 15 -8 20 -18 16 -36 -3 -16 2 -31 17 -45
l21 -20 -22 7 c-13 3 -23 3 -23 -2 1 -16 27 -43 43 -43 21 0 28 -24 14 -54
-14 -31 -23 -32 -39 -6 -7 11 -20 20 -28 20 -13 0 -13 2 -1 9 11 7 9 14 -12
34 -33 30 -37 53 -7 37 17 -9 20 -8 17 7 -3 23 -16 43 -26 43 -9 0 -31 -46
-34 -71 -4 -27 -19 -40 -38 -34 -10 3 -28 8 -39 11 -16 4 -20 1 -20 -16 0 -12
4 -19 9 -15 6 3 13 -9 16 -28 5 -23 12 -33 26 -34 17 -2 18 1 9 12 -14 16 -5
35 16 35 8 0 14 -10 14 -24 0 -13 3 -31 6 -40 4 -10 1 -16 -9 -16 -8 0 -18 6
-20 13 -3 6 -6 -1 -6 -17 -1 -28 -2 -28 -19 -13 -24 22 -52 22 -52 1 0 -12 3
-14 13 -6 10 9 17 6 30 -8 9 -11 17 -26 17 -33 1 -6 9 -2 19 11 11 12 28 22
39 22 11 0 25 7 32 15 18 22 26 19 50 -22 21 -35 21 -38 4 -50 -17 -12 -16
-13 4 -13 25 0 42 -28 24 -39 -6 -3 -7 -12 -3 -19 6 -9 12 -8 24 6 15 17 15
20 0 42 -19 27 -30 95 -13 85 6 -3 7 0 4 9 -3 9 -10 16 -16 16 -5 0 -6 -4 -3
-10 10 -16 -12 -12 -29 6 -22 21 -21 22 17 20 17 -1 40 2 49 8 24 14 33 1 19
-30 -11 -26 -8 -44 10 -44 5 0 9 9 9 21 0 11 5 17 10 14 6 -3 10 1 10 9 0 9
-5 16 -12 16 -19 0 25 29 45 30 10 0 20 -6 23 -14 3 -8 11 -14 17 -12 7 1 9 1
5 -1 -5 -3 -8 -16 -8 -29 0 -23 -9 -28 -47 -27 -7 1 -13 -3 -13 -9 0 -5 -4 -7
-8 -4 -4 2 -9 -4 -9 -15 -2 -22 15 -26 23 -5 3 8 12 12 20 9 13 -5 12 -8 -2
-24 -19 -21 -8 -25 17 -6 9 7 14 18 12 25 -6 15 9 16 25 0 9 -9 12 -9 12 1 0
9 9 11 33 6 24 -5 28 -4 17 4 -11 8 -12 11 -2 11 7 0 10 5 7 11 -4 6 -13 8
-20 5 -8 -3 -14 6 -17 25 -3 16 -1 29 4 29 4 0 8 -9 8 -20 0 -25 11 -25 39 -1
15 13 18 22 11 26 -7 4 -9 18 -6 31 6 24 -7 33 -19 14 -7 -12 -55 -14 -55 -2
1 19 28 38 55 38 27 -1 30 -5 33 -36 2 -19 10 -41 19 -47 10 -8 12 -13 5 -13
-8 0 -10 -9 -6 -25 5 -21 3 -25 -15 -25 -12 0 -21 -5 -21 -11 0 -7 9 -9 21 -6
15 4 23 0 26 -14 3 -11 11 -18 17 -16 45 19 46 19 46 -2 0 -12 9 -30 20 -41
27 -27 25 -33 -8 -25 -23 5 -28 2 -29 -15 -2 -22 23 -28 29 -8 3 9 10 8 23 -5
15 -16 16 -20 4 -28 -8 -5 -20 -7 -28 -4 -7 3 -20 -3 -27 -12 -12 -16 -13 -16
-14 -1 0 23 -40 11 -40 -13 0 -22 -3 -23 -33 -8 -21 10 -21 10 -3 -5 24 -19
15 -32 -12 -17 -17 9 -19 7 -16 -23 2 -28 -1 -33 -16 -29 -15 4 -18 1 -13 -18
5 -19 3 -21 -13 -15 -10 3 21 -30 69 -75 48 -45 86 -84 83 -86 -2 -3 -31 16
-63 41 -32 26 -62 50 -68 54 -16 13 -68 40 -88 46 -10 3 -16 10 -13 14 3 5
-13 19 -34 31 -22 12 -40 20 -40 17 0 -2 -12 7 -27 21 -50 46 -166 123 -232
156 -64 30 -71 33 -90 36 -5 0 -11 10 -14 21 -6 23 -27 27 -27 5 0 -12 -9 -14
-36 -11 -20 3 -40 8 -44 13 -5 4 -10 44 -12 88 -3 76 -2 80 15 66 9 -9 17 -21
17 -28 0 -6 4 -15 10 -18 5 -3 7 0 4 8 -3 8 3 17 13 21 10 4 19 2 21 -3 6 -17
22 -13 22 4 0 9 -7 18 -16 22 -11 4 -12 8 -4 13 16 10 2 33 -16 26 -9 -3 -11
0 -7 12 6 15 5 15 -10 3 -10 -7 -16 -20 -15 -29 5 -24 -16 -24 -27 1 -11 24 3
189 18 203 4 4 7 16 7 28 0 15 3 17 12 8 18 -18 40 -15 37 6 -2 9 5 31 14 48
15 30 15 33 0 45 -9 8 -18 13 -20 12 -1 -2 -7 -3 -12 -3 -11 0 7 60 17 60 4 0
17 3 29 6 18 5 23 0 31 -30 11 -39 6 -70 -15 -101 -16 -23 -17 -45 -3 -45 6 0
13 14 17 30 4 21 11 30 24 30 21 0 27 36 7 42 -17 6 0 28 21 28 10 0 23 11 29
25 6 14 16 25 22 25 6 0 8 -4 5 -10 -3 -5 -3 -10 2 -10 4 0 19 -3 32 -7 20 -5
23 -3 18 10 -3 9 -2 19 3 22 6 4 10 16 10 28 -1 20 -2 21 -14 5 -18 -25 -23
-23 -36 17 -18 54 -12 57 110 55 18 0 38 -6 42 -13 5 -8 8 -7 8 6 0 9 -6 17
-14 17 -9 0 -12 7 -9 20 4 15 0 20 -15 20 -29 0 -37 29 -9 39 17 7 24 4 31
-13 7 -17 10 -18 13 -5 4 17 37 37 61 38 9 1 11 -6 7 -18z m420 -29 c-3 -3
-14 5 -25 18 l-20 23 0 -24 c-1 -22 -1 -23 -11 -5 -18 30 11 40 38 14 13 -12
21 -24 18 -26z m1575 -2 c0 -5 -7 -7 -15 -4 -8 4 -12 10 -9 15 6 11 24 2 24
-11z m-1741 -4 c9 -11 7 -15 -7 -18 -18 -5 -45 15 -35 26 11 10 30 7 42 -8z
m-104 -25 c-3 -14 1 -18 11 -14 8 3 14 -1 14 -11 0 -17 -36 -23 -42 -6 -1 5
-15 11 -30 12 -33 3 -27 15 15 27 18 5 33 10 34 10 1 1 0 -8 -2 -18z m-417
-28 c11 -22 5 -44 -16 -60 -22 -18 -30 -16 -41 6 -8 14 -6 25 10 45 24 30 35
32 47 9z m-5061 -59 c-9 -9 -28 6 -21 18 4 6 10 6 17 -1 6 -6 8 -13 4 -17z
m5538 2 c19 -19 21 -25 10 -30 -8 -3 -17 -1 -20 4 -4 6 -15 10 -26 10 -17 0
-18 3 -7 20 16 25 14 25 43 -4z m-47 -159 c2 -12 -1 -15 -12 -11 -11 4 -13 0
-9 -14 2 -11 -1 -23 -7 -27 -8 -5 -11 3 -9 26 2 19 5 38 7 42 6 13 27 2 30
-16z m-175 -4 c-7 -2 -13 -15 -13 -28 0 -18 4 -22 19 -18 15 4 20 -4 30 -42 9
-37 15 -44 25 -36 13 11 26 5 26 -11 0 -5 -5 -6 -10 -3 -6 4 -17 1 -25 -5 -13
-10 -16 -7 -21 19 -4 20 -11 30 -20 27 -7 -3 -15 3 -19 12 -5 13 -10 8 -24
-21 -14 -30 -20 -35 -25 -22 -3 9 -1 25 4 35 7 13 7 21 0 25 -18 11 -11 45 9
45 10 0 21 7 25 15 3 8 11 15 18 14 10 0 10 -2 1 -6z m380 -42 c4 10 6 10 6
-2 1 -9 -6 -22 -14 -29 -13 -11 -15 -8 -15 16 0 20 3 25 9 15 7 -11 9 -11 14
0z m7 -70 c14 -27 -7 -39 -25 -15 -18 24 -19 34 0 34 8 0 19 -9 25 -19z m46 3
c-3 -8 -2 -23 3 -33 8 -14 6 -17 -9 -16 -30 2 -34 12 -16 40 18 28 31 34 22 9z
m-246 2 c0 -3 -4 -8 -10 -11 -5 -3 -10 -1 -10 4 0 6 5 11 10 11 6 0 10 -2 10
-4z m50 -6 c12 -8 9 -10 -12 -10 -16 0 -28 5 -28 10 0 13 20 13 40 0z m-106
-6 c19 -7 21 -24 3 -24 -23 0 -54 -29 -40 -38 7 -4 9 -13 5 -19 -5 -8 -12 -2
-19 17 -6 17 -7 28 -2 25 5 -4 14 5 21 19 13 29 11 28 32 20z m156 -24 c0 -5
-4 -10 -9 -10 -6 0 -13 5 -16 10 -3 6 1 10 9 10 9 0 16 -4 16 -10z m-66 -27
c4 -10 1 -20 -9 -25 -22 -13 -8 -29 20 -22 27 7 42 -11 25 -31 -16 -19 -40
-19 -40 -1 0 23 -22 31 -35 13 -14 -19 -35 -23 -35 -6 0 5 -4 8 -8 5 -4 -2
-14 0 -22 5 -12 7 -11 10 8 15 12 4 22 13 22 20 0 8 9 14 21 14 11 0 18 4 15
9 -4 5 0 12 6 14 22 9 26 8 32 -10z m281 7 c-3 -5 -16 -10 -28 -9 -20 1 -20 2
3 9 14 4 26 8 28 9 2 1 0 -3 -3 -9z m-480 -16 c8 -9 22 -13 30 -10 16 6 17 5
19 -39 1 -17 -4 -35 -13 -42 -21 -17 -31 -16 -31 2 0 8 -4 15 -10 15 -5 0 -10
-4 -10 -10 0 -5 -5 -10 -11 -10 -6 0 -9 10 -7 23 2 12 9 21 16 20 19 -5 14 15
-8 27 -23 12 -27 40 -6 40 8 0 22 -7 31 -16z m-1945 -110 c0 -55 19 -144 31
-144 5 0 9 22 9 49 0 57 7 81 24 81 10 0 12 -28 9 -112 -3 -81 1 -128 12 -168
8 -30 17 -69 19 -87 2 -17 11 -42 20 -55 22 -32 22 -69 -1 -61 -58 19 -149
169 -160 262 -3 31 -12 65 -18 76 -32 51 -20 193 17 217 21 12 38 -13 38 -58z
m2405 45 c-4 -5 -18 -9 -33 -9 l-27 0 25 14 c26 13 44 11 35 -5z m-361 -25 c8
-21 -7 -17 -21 6 -11 16 -10 18 1 14 8 -3 17 -12 20 -20z m416 22 c0 -3 -4 -8
-10 -11 -5 -3 -10 -1 -10 4 0 6 5 11 10 11 6 0 10 -2 10 -4z m-180 -16 c0 -5
-3 -10 -7 -10 -5 0 -18 -3 -30 -6 -17 -5 -23 -2 -23 10 0 11 9 16 30 16 17 0
30 -4 30 -10z m-182 -19 c3 -8 -1 -12 -9 -9 -7 2 -15 10 -17 17 -3 8 1 12 9 9
7 -2 15 -10 17 -17z m108 -11 c8 0 14 -4 14 -9 0 -18 -12 -41 -22 -41 -5 0 -7
4 -3 9 3 5 1 12 -5 16 -5 3 -10 16 -9 28 0 12 3 16 6 10 2 -7 11 -13 19 -13z
m178 -15 c3 -9 0 -15 -9 -15 -8 0 -15 7 -15 15 0 8 4 15 9 15 5 0 11 -7 15
-15z m-414 -15 c0 -13 -28 -25 -38 -16 -3 4 0 11 8 16 20 13 30 12 30 0z
m-170 -22 c0 -6 -6 -5 -15 2 -8 7 -15 14 -15 16 0 2 7 1 15 -2 8 -4 15 -11 15
-16z m470 14 c0 -13 -12 -22 -22 -16 -10 6 -1 24 13 24 5 0 9 -4 9 -8z m64 -1
c3 -5 0 -14 -7 -19 -10 -8 -13 -6 -14 9 -2 19 11 26 21 10z m156 -1 c0 -17
-27 -23 -47 -10 -16 10 -16 11 5 7 12 -3 22 -1 22 4 0 5 5 9 10 9 6 0 10 -5
10 -10z m-4690 -41 c0 -12 -37 -12 -44 0 -3 4 -3 11 0 14 8 7 44 -4 44 -14z
m2077 -4 c-7 -14 -18 -23 -25 -20 -7 3 -10 0 -7 -5 4 -6 -7 -10 -24 -10 -17 0
-31 3 -31 6 0 12 34 33 53 34 9 0 17 5 17 10 0 6 6 10 14 10 11 0 12 -5 3 -25z
m2188 15 c3 -5 1 -10 -4 -10 -6 0 -11 5 -11 10 0 6 2 10 4 10 3 0 8 -4 11 -10z
m-95 -10 c0 -5 -4 -10 -10 -10 -5 0 -10 5 -10 10 0 6 5 10 10 10 6 0 10 -4 10
-10z m-4350 -34 c0 -3 -4 -8 -10 -11 -5 -3 -10 -1 -10 4 0 6 5 11 10 11 6 0
10 -2 10 -4z m4655 -16 c3 -5 1 -10 -4 -10 -6 0 -11 5 -11 10 0 6 2 10 4 10 3
0 8 -4 11 -10z m-6461 -10 c-6 -6 -21 -12 -34 -15 -12 -2 -23 -6 -24 -7 -25
-42 -37 -92 -31 -125 5 -21 7 -42 6 -48 -2 -5 -4 -17 -5 -25 -1 -8 -7 -25 -14
-38 -11 -19 -18 -21 -55 -16 -73 9 -87 14 -87 28 0 8 -6 16 -12 19 -8 3 -14
30 -16 75 -2 63 0 72 20 87 23 17 22 17 -17 11 l-40 -6 31 14 c17 7 46 17 65
20 30 6 32 5 17 -7 -16 -12 -41 -141 -30 -152 3 -2 13 0 23 6 25 13 24 4 -2
-22 -23 -23 -18 -39 6 -19 13 10 15 9 15 -8 0 -16 6 -20 34 -19 28 1 33 4 27
16 -4 9 -7 48 -7 88 1 61 4 75 25 97 l24 26 -23 0 c-56 0 -3 15 105 29 5 0 5
-3 -1 -9z m396 0 c11 -7 1 -10 -35 -10 -50 0 -50 0 -63 -40 -6 -22 -12 -53
-12 -70 0 -24 -3 -28 -17 -23 -50 19 -42 94 12 118 19 8 19 9 -2 12 -13 3 -23
9 -23 14 0 12 121 11 140 -1z m1485 0 c-3 -5 -11 -10 -16 -10 -6 0 -7 5 -4 10
3 6 11 10 16 10 6 0 7 -4 4 -10z m4635 0 c0 -5 -2 -10 -4 -10 -3 0 -8 5 -11
10 -3 6 -1 10 4 10 6 0 11 -4 11 -10z m-6440 -59 c0 -22 7 -46 15 -55 8 -8 15
-17 15 -20 0 -3 -7 -6 -15 -6 -8 0 -15 -4 -15 -10 0 -16 -22 -12 -36 8 -18 24
-17 87 2 106 25 25 34 19 34 -23z m1740 19 c0 -5 -7 -10 -15 -10 -8 0 -15 5
-15 10 0 6 7 10 15 10 8 0 15 -4 15 -10z m4774 2 c3 -5 -8 -6 -25 -4 -16 2
-29 6 -29 8 0 8 49 4 54 -4z m63 -12 c-1 -11 -5 -20 -9 -20 -10 0 -10 4 -2 24
8 22 13 20 11 -4z m48 10 c-3 -5 -12 -10 -18 -10 -7 0 -6 4 3 10 19 12 23 12
15 0z m-6241 -9 c3 -4 -4 -25 -14 -47 -11 -21 -20 -46 -20 -56 0 -10 -4 -18
-10 -18 -13 0 -13 86 0 111 11 20 35 25 44 10z m5956 -5 c0 -3 -4 -8 -10 -11
-5 -3 -10 -1 -10 4 0 6 5 11 10 11 6 0 10 -2 10 -4z m920 -21 c85 -19 265 -87
313 -119 18 -11 44 -27 59 -35 48 -25 138 -117 148 -152 12 -42 4 -69 -20 -69
-10 0 -29 -12 -42 -27 -13 -16 -33 -33 -44 -39 -10 -6 -18 -20 -16 -31 1 -10
-9 -30 -23 -43 -22 -21 -25 -22 -25 -5 0 10 7 27 17 37 9 11 11 18 5 18 -7 0
-12 -4 -12 -8 0 -15 -113 -56 -165 -59 -27 -2 -59 -4 -70 -6 -12 -1 -23 6 -30
21 -5 12 -18 25 -27 28 -10 3 -18 10 -18 15 0 5 -7 9 -15 9 -8 0 -15 5 -15 11
0 6 -6 9 -13 6 -15 -6 -42 47 -32 64 5 7 2 8 -11 1 -55 -28 -75 -34 -98 -28
-16 4 -24 12 -23 25 1 15 5 17 17 11 9 -5 22 -5 31 1 12 7 7 14 -5 7 -2 -2
-15 9 -28 25 -22 25 -26 26 -57 16 -27 -9 -35 -9 -42 2 -15 24 -10 31 17 25
17 -5 23 -3 19 4 -3 5 -12 10 -19 10 -7 0 -19 11 -26 25 -7 13 -17 22 -22 19
-4 -3 -8 1 -8 9 0 16 -55 77 -69 77 -14 0 -21 30 -19 78 2 50 21 66 106 86 71
16 164 13 262 -9z m-630 -5 c0 -15 -6 -19 -25 -18 -30 3 -29 2 -9 22 21 22 34
20 34 -4z m-7050 6 c0 -2 -7 -6 -15 -10 -8 -3 -15 -1 -15 4 0 6 7 10 15 10 8
0 15 -2 15 -4z m918 -3 c-2 -5 -10 -25 -18 -45 -16 -44 -33 -51 -24 -10 9 38
23 62 35 62 6 0 9 -3 7 -7z m-559 -113 c-9 -25 -9 -34 1 -40 15 -9 5 -30 -16
-30 -14 0 -18 12 -15 38 1 8 -3 20 -10 28 -6 8 -9 18 -5 21 4 4 11 1 15 -6 6
-9 11 -10 15 -2 4 6 4 16 1 21 -3 6 -3 15 1 21 14 23 24 -18 13 -51z m1931 30
c0 -5 -4 -10 -10 -10 -5 0 -10 5 -10 10 0 6 5 10 10 10 6 0 10 -4 10 -10z m40
0 c0 -5 -7 -10 -16 -10 -8 0 -12 5 -9 10 3 6 10 10 16 10 5 0 9 -4 9 -10z
m4665 0 c3 -5 1 -10 -4 -10 -6 0 -11 5 -11 10 0 6 2 10 4 10 3 0 8 -4 11 -10z
m-6493 -22 c-4 -15 -2 -19 8 -13 7 4 16 2 21 -6 14 -22 10 -49 -6 -49 -8 0
-15 9 -15 20 0 11 -7 20 -15 20 -16 0 -19 9 -9 34 9 24 23 19 16 -6z m171 7
c-3 -9 -8 -14 -10 -11 -3 3 -2 9 2 15 9 16 15 13 8 -4z m-623 -15 c0 -5 -4
-10 -10 -10 -5 0 -10 5 -10 10 0 6 5 10 10 10 6 0 10 -4 10 -10z m2372 -24
c15 -21 8 -46 -11 -46 -11 0 -23 5 -26 10 -4 6 -10 8 -15 5 -4 -3 -13 2 -20
10 -9 11 -10 18 -1 29 12 15 62 10 73 -8z m111 3 c3 -12 3 -18 0 -15 -4 3 -12
1 -20 -5 -19 -17 -48 8 -32 27 17 21 46 17 52 -7z m-2063 -9 c0 -5 -4 -10 -10
-10 -5 0 -10 5 -10 10 0 6 5 10 10 10 6 0 10 -4 10 -10z m2220 -10 c0 -5 -9
-10 -21 -10 -11 0 -17 5 -14 10 3 6 13 10 21 10 8 0 14 -4 14 -10z m-400 -40
c0 -5 -4 -10 -10 -10 -5 0 -10 5 -10 10 0 6 5 10 10 10 6 0 10 -4 10 -10z
m-1923 -6 c-3 -3 -12 -4 -19 -1 -8 3 -5 6 6 6 11 1 17 -2 13 -5z m6323 -14 c0
-5 -4 -10 -9 -10 -6 0 -13 5 -16 10 -3 6 1 10 9 10 9 0 16 -4 16 -10z m67 -22
c-3 -8 -6 -5 -6 6 -1 11 2 17 5 13 3 -3 4 -12 1 -19z m-22 2 c3 -5 1 -10 -4
-10 -6 0 -11 5 -11 10 0 6 2 10 4 10 3 0 8 -4 11 -10z m-5815 -76 c0 -2 -14
-4 -31 -4 -16 0 -28 4 -25 9 5 8 56 3 56 -5z m1250 -9 c0 -8 -8 -15 -19 -15
-10 0 -24 -7 -31 -15 -13 -16 -30 -20 -30 -7 0 6 67 51 78 52 1 0 2 -7 2 -15z
m3920 -31 c0 -8 -4 -12 -10 -9 -5 3 -10 10 -10 16 0 5 5 9 10 9 6 0 10 -7 10
-16z m1430 6 c0 -5 -2 -10 -4 -10 -3 0 -8 5 -11 10 -3 6 -1 10 4 10 6 0 11 -4
11 -10z m-30 -34 c0 -3 -4 -8 -10 -11 -5 -3 -10 -1 -10 4 0 6 5 11 10 11 6 0
10 -2 10 -4z m-5450 -29 c0 -8 -11 -19 -25 -25 -24 -11 -25 -10 -15 7 8 16 18
24 38 30 1 1 2 -5 2 -12z m570 -37 c0 -5 -5 -10 -11 -10 -5 0 -7 5 -4 10 3 6
8 10 11 10 2 0 4 -4 4 -10z m4610 -76 c0 -8 -4 -12 -10 -9 -5 3 -10 10 -10 16
0 5 5 9 10 9 6 0 10 -7 10 -16z"/>
<path d="M860 8400 c0 -5 5 -10 10 -10 6 0 10 5 10 10 0 6 -4 10 -10 10 -5 0
-10 -4 -10 -10z"/>
<path d="M1964 7108 c-20 -9 -44 -47 -44 -68 0 -11 40 -13 64 -4 19 7 21 40 4
48 -10 5 -10 7 0 12 13 6 17 24 5 23 -5 0 -18 -5 -29 -11z"/>
<path d="M2067 6973 c-10 -10 -8 -51 3 -58 12 -7 50 30 50 50 0 15 -40 21 -53
8z"/>
<path d="M2160 6942 c0 -5 7 -13 16 -16 10 -4 14 -1 12 6 -5 15 -28 23 -28 10z"/>
<path d="M3677 5971 c-4 -17 -3 -21 5 -13 5 5 8 16 6 23 -3 8 -7 3 -11 -10z"/>
<path d="M3733 5963 c-16 -6 -17 -33 -3 -33 11 0 26 28 19 34 -2 2 -10 1 -16
-1z"/>
<path d="M3605 5880 c-3 -6 1 -7 9 -4 18 7 21 14 7 14 -6 0 -13 -4 -16 -10z"/>
<path d="M4828 3928 c-3 -13 -9 -30 -12 -39 -6 -13 -1 -16 19 -16 24 0 26 3
23 35 -3 41 -23 54 -30 20z"/>
<path d="M4800 3849 c0 -5 5 -7 10 -4 6 3 10 8 10 11 0 2 -4 4 -10 4 -5 0 -10
-5 -10 -11z"/>
<path d="M4830 3850 c0 -5 5 -10 10 -10 6 0 10 5 10 10 0 6 -4 10 -10 10 -5 0
-10 -4 -10 -10z"/>
<path d="M4805 3810 c3 -5 8 -10 11 -10 2 0 4 5 4 10 0 6 -5 10 -11 10 -5 0
-7 -4 -4 -10z"/>
<path d="M1165 3350 c3 -5 8 -10 11 -10 2 0 4 5 4 10 0 6 -5 10 -11 10 -5 0
-7 -4 -4 -10z"/>
<path d="M5948 2843 c12 -2 30 -2 40 0 9 3 -1 5 -23 4 -22 0 -30 -2 -17 -4z"/>
<path d="M5898 2833 c7 -3 16 -2 19 1 4 3 -2 6 -13 5 -11 0 -14 -3 -6 -6z"/>
<path d="M5848 2823 c7 -3 16 -2 19 1 4 3 -2 6 -13 5 -11 0 -14 -3 -6 -6z"/>
<path d="M7340 2670 c0 -5 5 -10 11 -10 5 0 7 5 4 10 -3 6 -8 10 -11 10 -2 0
-4 -4 -4 -10z"/>
<path d="M6756 1124 c-9 -22 -8 -24 9 -24 8 0 15 9 15 20 0 24 -15 27 -24 4z"/>
<path d="M6850 1130 c0 -5 -8 -10 -17 -10 -21 0 -44 -45 -36 -67 4 -11 2 -14
-5 -9 -8 4 -12 0 -12 -11 0 -10 -7 -29 -16 -41 -9 -13 -14 -24 -13 -25 2 -2
13 -9 23 -17 18 -14 19 -13 13 4 -5 12 -1 26 9 37 10 12 12 19 5 19 -8 0 -8 5
-2 18 6 9 13 30 16 46 4 21 9 26 17 18 8 -8 15 -4 25 15 16 30 16 33 3 33 -5
0 -10 -4 -10 -10z"/>
<path d="M6740 1024 c0 -8 5 -12 10 -9 6 4 8 11 5 16 -9 14 -15 11 -15 -7z"/>
<path d="M6703 977 c4 -10 7 -23 7 -28 0 -5 5 -9 10 -9 15 0 12 20 -7 38 -16
16 -16 16 -10 -1z"/>
<path d="M6537 973 c-4 -3 -7 -11 -7 -17 0 -6 5 -5 12 2 6 6 9 14 7 17 -3 3
-9 2 -12 -2z"/>
<path d="M6626 960 c3 -14 8 -33 11 -42 4 -12 0 -18 -11 -18 -9 0 -16 -5 -16
-11 0 -6 7 -9 15 -5 11 4 15 -1 15 -18 0 -14 -3 -26 -7 -29 -5 -2 -3 -2 4 -1
6 2 16 -3 22 -10 9 -10 6 -15 -11 -19 -12 -4 -19 -9 -15 -13 11 -12 56 25 63
51 7 27 19 33 27 13 3 -7 6 -3 6 10 1 12 6 22 11 22 6 0 10 7 10 15 0 20 -7
19 -32 -5 -27 -25 -38 -25 -36 -2 4 48 -2 62 -26 62 -13 0 -27 6 -30 13 -4 6
-4 1 0 -13z"/>
<path d="M6582 958 c-7 -7 -12 -8 -12 -4 0 5 -7 3 -15 -4 -8 -7 -15 -22 -15
-34 1 -19 2 -19 11 -3 5 9 16 17 23 17 8 0 17 7 20 16 8 22 3 27 -12 12z"/>
<path d="M6810 936 c0 -8 7 -16 15 -20 10 -4 15 1 15 14 0 11 -7 20 -15 20 -8
0 -15 -6 -15 -14z"/>
<path d="M6575 890 c-4 -12 -5 -24 -2 -27 3 -2 8 5 12 17 4 12 5 24 2 27 -3 2
-8 -5 -12 -17z"/>
<path d="M6742 855 c-20 -23 -21 -28 -8 -40 8 -8 21 -15 29 -15 18 0 30 42 15
51 -6 4 -7 12 -4 18 14 21 -11 11 -32 -14z"/>
<path d="M6560 810 c0 -5 4 -10 9 -10 6 0 13 5 16 10 3 6 -1 10 -9 10 -9 0
-16 -4 -16 -10z"/>
<path d="M6590 765 c0 -17 9 -19 28 -6 11 7 10 10 -3 15 -23 9 -25 8 -25 -9z"/>
<path d="M6663 755 c0 -13 3 -22 8 -19 5 3 9 14 9 25 0 10 -4 19 -9 19 -5 0
-8 -11 -8 -25z"/>
<path d="M6620 692 c0 -10 6 -25 13 -34 10 -12 16 -13 35 -3 21 11 21 13 5 27
-30 25 -53 30 -53 10z"/>
<path d="M6520 658 c0 -19 2 -20 10 -8 13 19 13 30 0 30 -5 0 -10 -10 -10 -22z"/>
<path d="M7046 651 c-4 -7 -5 -15 -2 -18 9 -9 19 4 14 18 -4 11 -6 11 -12 0z"/>
<path d="M6612 625 c0 -16 2 -22 5 -12 2 9 2 23 0 30 -3 6 -5 -1 -5 -18z"/>
<path d="M6655 624 c-11 -11 -13 -20 -6 -27 12 -12 41 8 41 29 0 19 -15 18
-35 -2z"/>
<path d="M6510 620 c0 -5 5 -10 10 -10 6 0 10 5 10 10 0 6 -4 10 -10 10 -5 0
-10 -4 -10 -10z"/>
<path d="M6801 577 c-6 -16 -11 -35 -11 -43 0 -8 -5 -14 -12 -14 -9 0 -9 -3
-1 -11 18 -18 34 -1 27 28 -6 23 -5 25 17 18 35 -11 40 -26 16 -45 -14 -12
-17 -19 -9 -24 7 -4 12 -1 12 8 0 20 16 21 27 1 8 -13 11 -13 28 1 18 14 18
15 2 10 -11 -3 -16 -2 -12 4 4 6 -4 19 -17 30 -18 16 -20 21 -9 29 16 11 -3
26 -20 15 -6 -3 -15 -1 -20 7 -6 10 -11 6 -18 -14z"/>
<path d="M6680 560 c0 -5 5 -10 11 -10 5 0 7 5 4 10 -3 6 -8 10 -11 10 -2 0
-4 -4 -4 -10z"/>
<path d="M7235 510 c-3 -5 -5 -10 -3 -11 33 -8 38 -7 27 7 -14 17 -16 17 -24
4z"/>
<path d="M7160 481 c0 -6 5 -13 10 -16 6 -3 10 1 10 9 0 9 -4 16 -10 16 -5 0
-10 -4 -10 -9z"/>
<path d="M6920 1040 c0 -5 5 -10 10 -10 6 0 10 5 10 10 0 6 -4 10 -10 10 -5 0
-10 -4 -10 -10z"/>
<path d="M7000 859 c0 -5 5 -7 10 -4 6 3 10 8 10 11 0 2 -4 4 -10 4 -5 0 -10
-5 -10 -11z"/>
<path d="M7675 8973 c8 -34 38 -63 64 -63 11 0 23 -4 26 -10 3 -5 23 -10 43
-10 34 0 99 -30 113 -52 4 -6 4 -18 2 -28 -6 -21 -43 -30 -120 -30 -44 0 -58
4 -79 25 l-25 25 -6 -33 c-4 -17 -6 -36 -4 -42 1 -5 0 -44 -4 -85 -6 -55 -10
-70 -16 -55 -6 13 -7 7 -3 -18 4 -20 1 -66 -5 -102 -6 -36 -16 -95 -22 -132
-6 -38 -17 -83 -25 -101 -10 -22 -13 -48 -9 -80 5 -34 4 -43 -4 -32 -9 12 -11
11 -11 -7 0 -14 -6 -23 -16 -23 -12 0 -14 -9 -12 -42 2 -35 -1 -47 -20 -62
-17 -13 -20 -22 -13 -29 14 -14 14 -50 1 -63 -6 -6 -15 -49 -21 -97 -10 -73
-16 -93 -40 -120 -16 -17 -29 -36 -30 -42 -1 -5 -3 -14 -4 -20 -1 -5 -6 -21
-12 -35 -6 -14 -16 -44 -22 -67 -6 -23 -17 -48 -25 -55 -7 -7 -15 -20 -19 -28
-3 -10 -6 -7 -6 8 -1 15 -7 22 -22 22 -16 0 -19 -4 -14 -17 8 -20 8 -24 -1
-68 -3 -18 0 -41 10 -59 13 -26 13 -33 0 -57 -8 -15 -14 -37 -14 -48 0 -11
-11 -32 -26 -46 -14 -14 -22 -30 -19 -35 9 -15 -43 -120 -60 -120 -16 0 -22
-60 -7 -74 4 -4 8 -27 9 -49 1 -23 5 -59 9 -81 5 -28 3 -37 -5 -32 -14 9 -14
-1 0 -81 9 -52 14 -63 31 -63 10 0 16 -4 13 -10 -3 -5 1 -10 9 -10 9 0 16 -4
16 -10 0 -5 6 -10 14 -10 8 0 20 -17 26 -37 7 -21 36 -69 64 -108 29 -38 58
-81 64 -95 7 -14 21 -39 31 -57 29 -47 91 -240 91 -282 0 -21 -5 -62 -11 -93
-13 -62 -7 -78 62 -180 21 -31 49 -79 62 -105 13 -26 31 -61 40 -78 62 -120
129 -260 146 -306 24 -65 41 -163 41 -243 0 -33 12 -108 27 -169 26 -107 28
-110 68 -134 385 -238 648 -539 765 -876 30 -86 60 -232 60 -291 0 -49 8 -53
93 -48 l77 4 0 2739 0 2739 -666 0 -666 0 7 -27z m2 -515 c-2 -13 -4 -3 -4 22
0 25 2 35 4 23 2 -13 2 -33 0 -45z m-150 -610 c-3 -8 -6 -5 -6 6 -1 11 2 17 5
13 3 -3 4 -12 1 -19z"/>
<path d="M6456 6521 c17 -17 134 -18 134 -1 0 6 -31 10 -72 10 -44 0 -68 -4
-62 -9z"/>
<path d="M7375 6200 c3 -5 8 -10 11 -10 2 0 4 5 4 10 0 6 -5 10 -11 10 -5 0
-7 -4 -4 -10z"/>
<path d="M7395 6158 c13 -46 69 -168 77 -168 13 0 10 12 -12 48 -11 18 -20 39
-20 47 0 24 -31 95 -42 95 -5 0 -6 -10 -3 -22z"/>
<path d="M4208 5704 c-2 -23 -7 -29 -25 -27 -14 2 -23 -3 -23 -11 0 -19 60 -6
74 17 8 13 7 21 -6 33 -15 16 -17 15 -20 -12z"/>
<path d="M4135 5651 c-3 -6 -19 -11 -35 -11 -16 0 -32 -5 -35 -11 -11 -17 -2
-18 38 -4 42 14 53 22 45 31 -3 3 -9 1 -13 -5z"/>
<path d="M3894 5419 c-3 -6 -2 -15 3 -20 5 -5 9 -1 10 11 2 22 -2 25 -13 9z"/>
<path d="M4904 5394 c3 -9 6 -18 6 -20 0 -2 5 -4 10 -4 6 0 10 9 10 20 0 12
-7 20 -16 20 -11 0 -14 -5 -10 -16z"/>
<path d="M4975 5370 c3 -5 8 -10 11 -10 2 0 4 5 4 10 0 6 -5 10 -11 10 -5 0
-7 -4 -4 -10z"/>
<path d="M5544 5229 c3 -17 6 -38 6 -45 0 -18 15 -18 34 1 8 8 24 15 35 15 24
0 26 6 7 25 -7 8 -23 11 -35 8 -15 -4 -21 -1 -21 11 0 9 -7 16 -16 16 -13 0
-15 -7 -10 -31z"/>
<path d="M3576 5121 c-4 -7 -5 -15 -2 -18 9 -9 19 4 14 18 -4 11 -6 11 -12 0z"/>
<path d="M5942 4909 c-19 -51 -23 -69 -14 -69 5 0 14 19 20 42 12 47 8 64 -6
27z"/>
<path d="M7310 4856 c0 -13 -9 -51 -20 -86 -13 -42 -18 -76 -14 -104 4 -26 2
-36 -4 -28 -6 10 -13 1 -25 -30 -20 -52 -21 -75 -3 -108 l14 -25 17 43 c11 26
23 41 30 38 27 -10 38 181 12 212 -7 8 -7 16 -1 20 13 10 17 92 4 92 -5 0 -10
-11 -10 -24z"/>
<path d="M6076 4843 c-6 -14 -5 -15 5 -6 7 7 10 15 7 18 -3 3 -9 -2 -12 -12z"/>
<path d="M5925 4810 c-7 -23 -8 -24 -15 -5 -5 15 -11 5 -27 -42 -11 -34 -16
-66 -12 -70 4 -4 10 -30 12 -56 3 -27 8 -51 10 -54 20 -19 61 176 48 224 l-8
28 -8 -25z"/>
<path d="M5983 4786 c2 -6 0 -45 -4 -86 -5 -41 -4 -97 0 -125 5 -27 9 -42 10
-32 0 9 5 17 11 17 5 0 23 19 40 42 27 37 30 48 30 120 0 79 -7 96 -25 56 -13
-29 -41 -30 -38 -2 1 13 -4 21 -13 21 -8 0 -13 -5 -11 -11z"/>
<path d="M6144 4690 c-28 -85 -22 -178 22 -311 34 -101 40 -113 75 -136 22
-14 39 -30 39 -34 0 -5 6 -9 14 -9 12 0 116 -146 116 -163 0 -4 9 -26 19 -50
11 -23 32 -71 47 -107 31 -72 44 -93 44 -67 0 15 2 15 19 -2 15 -15 26 -18 48
-12 42 11 34 23 -24 39 -31 9 -53 20 -53 28 0 18 -4 19 81 -17 56 -24 88 -32
134 -31 49 0 65 -4 88 -24 33 -28 56 -32 36 -7 -12 14 -12 16 0 8 11 -6 13 -4
7 11 -17 41 -18 54 -4 54 22 0 6 89 -19 110 -11 9 -28 32 -38 50 -10 19 -31
48 -47 65 -16 16 -63 67 -103 113 -68 77 -74 88 -81 140 -7 60 -4 55 -111 155
-22 20 -45 37 -51 37 -11 0 -72 66 -72 78 0 4 -21 16 -48 26 -26 11 -50 24
-54 30 -5 7 -8 4 -8 -6 0 -34 -30 -6 -43 40 l-14 46 -19 -54z m380 -404 c-3
-8 -1 -17 5 -21 6 -3 11 -14 11 -23 0 -14 -3 -13 -21 5 -21 21 -21 53 0 53 6
0 8 -6 5 -14z m-86 -185 c15 -10 45 -21 67 -24 43 -7 95 -55 95 -90 0 -10 7
-25 15 -33 11 -11 15 -12 15 -3 0 11 2 11 13 0 10 -10 8 -14 -6 -22 -17 -10
-17 -12 -2 -35 20 -32 15 -30 -23 5 -22 21 -37 28 -53 24 -15 -4 -20 -3 -15 5
4 7 2 12 -3 12 -6 0 -11 -4 -11 -10 0 -5 -5 -10 -11 -10 -5 0 -7 4 -4 10 3 5
0 7 -9 4 -10 -4 -23 9 -41 43 -14 26 -34 62 -45 78 -18 29 -26 65 -14 65 3 0
18 -8 32 -19z"/>
<path d="M1786 4672 c-4 -7 -12 -10 -17 -7 -5 4 -9 -2 -9 -11 0 -10 3 -14 7
-11 3 4 12 2 19 -4 16 -13 24 0 14 25 -4 14 -9 16 -14 8z"/>
<path d="M5472 4537 c-26 -85 -27 -91 -7 -84 23 9 26 -7 6 -39 -9 -16 -21 -38
-25 -49 l-7 -20 18 20 c10 11 29 36 43 55 13 19 41 54 62 77 37 42 54 79 24
54 -10 -9 -15 -8 -20 4 -3 8 -10 15 -16 15 -6 0 -9 -4 -6 -9 9 -13 -26 -23
-38 -11 -7 7 -5 10 6 10 11 0 15 6 11 21 -4 14 -8 17 -13 8 -6 -9 -9 -7 -11 4
-2 9 -14 -16 -27 -56z"/>
<path d="M5663 4450 c3 -11 1 -18 -4 -14 -5 3 -14 -7 -19 -23 -21 -58 -59
-113 -78 -113 -5 0 -14 -11 -20 -25 -7 -15 -8 -25 -2 -25 6 0 10 -6 10 -14 0
-14 23 -27 44 -25 5 0 12 -5 16 -11 13 -21 27 19 33 93 2 38 10 74 16 80 6 6
11 19 11 30 0 10 4 16 9 13 13 -9 20 31 8 43 -17 17 -30 13 -24 -9z"/>
<path d="M5736 4292 c-18 -67 -20 -92 -6 -92 6 0 10 -4 10 -10 0 -5 -7 -10
-15 -10 -8 0 -15 -6 -15 -12 0 -7 -3 -22 -6 -34 -4 -16 6 -29 48 -61 50 -38
120 -102 215 -196 24 -23 43 -49 43 -58 0 -8 10 -35 22 -60 12 -24 23 -46 23
-49 4 -16 28 -97 33 -110 4 -8 6 -28 7 -45 0 -25 5 -31 26 -33 15 -2 34 4 44
15 28 27 64 43 101 43 76 0 214 81 214 125 0 8 4 15 8 15 14 0 30 44 20 55
-30 35 -48 59 -48 67 0 14 -58 82 -89 106 -26 19 -28 19 -24 3 5 -21 -19 -30
-67 -27 -28 2 -31 0 -28 -23 2 -14 8 -25 14 -24 6 1 16 -22 22 -52 6 -29 18
-70 26 -90 13 -29 20 -35 36 -31 11 3 30 9 43 12 l22 6 -22 -17 c-13 -9 -23
-22 -23 -28 0 -7 -12 -25 -26 -40 l-26 -28 -25 26 c-14 14 -34 25 -44 25 -10
0 -20 4 -23 9 -3 4 -20 11 -38 15 -38 7 -136 68 -119 74 20 7 43 63 38 91 -8
40 6 54 55 57 40 2 43 4 46 33 2 18 -4 52 -14 77 -18 48 -33 54 -17 7 10 -29
7 -53 -6 -53 -4 0 -18 21 -30 46 -13 26 -33 49 -47 54 -13 5 -24 16 -24 25 0
8 -6 15 -14 15 -8 0 -21 6 -28 13 -7 7 -21 16 -30 20 -10 3 -18 16 -18 28 0
19 -26 76 -41 89 -3 3 -8 13 -12 23 -4 9 -19 22 -34 27 -16 6 -37 14 -48 19
-11 5 -36 12 -56 15 l-36 6 -17 -58z m151 -214 c-3 -8 -6 -5 -6 6 -1 11 2 17
5 13 3 -3 4 -12 1 -19z m497 -190 c9 -35 7 -108 -3 -108 -5 0 -11 29 -13 65
-3 65 4 85 16 43z"/>
<path d="M7002 4328 c-53 -27 -60 -53 -31 -103 23 -38 23 -38 33 -14 6 13 13
26 17 29 4 3 10 21 13 41 3 20 8 43 12 52 8 21 8 21 -44 -5z"/>
<path d="M6067 4259 c4 -13 8 -18 11 -10 2 7 -1 18 -6 23 -8 8 -9 4 -5 -13z"/>
<path d="M1525 4190 c-9 -15 7 -41 24 -38 24 5 25 35 1 41 -11 3 -22 1 -25 -3z"/>
<path d="M1635 4130 c-21 -23 -12 -39 13 -24 19 12 29 44 14 44 -5 0 -17 -9
-27 -20z"/>
<path d="M1608 3989 c-25 -43 -23 -66 7 -71 31 -6 61 14 69 48 15 56 -47 75
-76 23z"/>
<path d="M1154 3967 c-3 -10 -1 -38 6 -63 11 -40 16 -45 34 -39 12 4 40 10 64
12 23 3 42 8 42 12 0 13 -33 38 -60 46 -14 4 -33 14 -42 23 -10 8 -18 11 -18
6 0 -5 -4 -2 -10 6 -8 12 -10 12 -16 -3z"/>
<path d="M5230 3851 c0 -17 5 -33 10 -36 6 -4 10 8 10 29 0 20 -4 36 -10 36
-5 0 -10 -13 -10 -29z"/>
<path d="M385 3840 c3 -5 8 -10 11 -10 2 0 4 5 4 10 0 6 -5 10 -11 10 -5 0 -7
-4 -4 -10z"/>
<path d="M1360 3816 c0 -18 6 -38 13 -44 20 -17 59 8 68 42 10 36 3 46 -14 22
-12 -16 -14 -16 -26 -2 -23 27 -41 19 -41 -18z"/>
<path d="M1193 3744 c-3 -8 -1 -20 4 -25 12 -12 48 14 39 29 -10 17 -36 15
-43 -4z"/>
<path d="M437 3713 c-14 -13 -6 -23 18 -23 28 0 34 15 9 24 -19 7 -19 7 -27
-1z"/>
<path d="M1621 3604 c0 -11 3 -14 6 -6 3 7 2 16 -1 19 -3 4 -6 -2 -5 -13z"/>
<path d="M1590 3580 c-11 -7 -11 -11 1 -26 11 -13 11 -18 2 -21 -19 -7 -16
-31 8 -65 21 -28 21 -30 3 -43 -11 -8 -22 -15 -26 -15 -5 0 -8 -4 -8 -10 0 -5
6 -7 13 -5 7 3 27 -9 46 -25 18 -17 40 -29 47 -26 16 6 34 -23 26 -43 -6 -17
15 -31 49 -31 37 0 42 10 18 36 -23 24 -18 47 7 37 14 -5 14 -2 -1 27 l-17 33
25 -6 c46 -12 40 15 -11 42 -12 6 -22 18 -22 25 0 8 -7 17 -16 20 -25 9 -30 6
-13 -7 21 -16 35 -102 18 -113 -7 -4 -18 0 -25 10 -9 13 -20 16 -42 12 -37 -9
-62 16 -45 44 7 9 15 34 18 54 5 27 12 36 27 36 31 0 18 34 -15 38 -15 2 -27
7 -27 12 0 13 -25 19 -40 10z"/>
<path d="M6675 3376 c-50 -11 -51 -11 -38 -36 7 -14 13 -40 13 -57 0 -18 4
-33 10 -33 14 0 90 104 90 123 0 19 -4 19 -75 3z"/>
<path d="M1560 3369 c0 -9 5 -30 11 -48 14 -41 3 -105 -17 -97 -9 3 -14 -1
-14 -14 0 -10 -7 -23 -16 -28 -13 -7 -14 -11 -4 -17 7 -4 16 -2 20 5 12 20 38
5 62 -36 l21 -36 13 31 c7 16 14 38 15 48 3 30 -13 103 -23 103 -5 0 -8 17 -6
38 3 31 0 37 -15 34 -11 -2 -25 5 -33 15 -11 15 -13 16 -14 2z"/>
<path d="M1795 3320 c3 -5 8 -10 11 -10 2 0 4 5 4 10 0 6 -5 10 -11 10 -5 0
-7 -4 -4 -10z"/>
<path d="M1385 3290 c3 -5 10 -10 16 -10 5 0 9 5 9 10 0 6 -7 10 -16 10 -8 0
-12 -4 -9 -10z"/>
<path d="M440 3280 c0 -5 4 -10 9 -10 6 0 13 5 16 10 3 6 -1 10 -9 10 -9 0
-16 -4 -16 -10z"/>
<path d="M385 3270 c3 -5 8 -10 11 -10 2 0 4 5 4 10 0 6 -5 10 -11 10 -5 0 -7
-4 -4 -10z"/>
<path d="M12 3248 c-14 -14 -15 -57 -3 -77 6 -9 6 -22 0 -34 -9 -16 -7 -18 12
-15 21 3 23 9 24 61 2 60 -12 86 -33 65z"/>
<path d="M1810 3209 c-13 -8 -13 -10 0 -19 19 -12 27 -12 34 -1 9 15 -18 31
-34 20z"/>
<path d="M220 3040 c0 -5 7 -10 15 -10 8 0 15 5 15 10 0 6 -7 10 -15 10 -8 0
-15 -4 -15 -10z"/>
<path d="M2105 3040 c3 -5 8 -10 11 -10 2 0 4 5 4 10 0 6 -5 10 -11 10 -5 0
-7 -4 -4 -10z"/>
<path d="M688 3013 c7 -3 16 -2 19 1 4 3 -2 6 -13 5 -11 0 -14 -3 -6 -6z"/>
<path d="M2055 3010 c-3 -5 -1 -10 4 -10 6 0 11 5 11 10 0 6 -2 10 -4 10 -3 0
-8 -4 -11 -10z"/>
<path d="M290 2970 c-11 -7 -12 -12 -3 -21 13 -13 33 -4 33 17 0 16 -9 18 -30
4z"/>
<path d="M2 2945 c0 -16 2 -22 5 -12 2 9 2 23 0 30 -3 6 -5 -1 -5 -18z"/>
<path d="M160 2960 c0 -5 5 -10 10 -10 6 0 10 5 10 10 0 6 -4 10 -10 10 -5 0
-10 -4 -10 -10z"/>
<path d="M1510 2933 c0 -4 5 -15 10 -23 8 -13 10 -13 10 2 0 9 -4 20 -10 23
-5 3 -10 3 -10 -2z"/>
<path d="M80 2900 c0 -5 7 -10 15 -10 8 0 15 5 15 10 0 6 -7 10 -15 10 -8 0
-15 -4 -15 -10z"/>
<path d="M278 2886 c-10 -7 -18 -20 -18 -28 0 -21 43 -41 69 -33 19 6 20 8 8
18 -9 7 -17 21 -19 31 -4 25 -18 29 -40 12z"/>
<path d="M8534 2854 c-79 -73 -207 -167 -322 -234 -59 -35 -122 -74 -140 -87
-17 -13 -37 -21 -42 -18 -6 3 -10 1 -10 -5 0 -7 -6 -10 -13 -7 -8 3 -20 1 -28
-5 -11 -8 -10 -9 4 -4 49 16 -13 -39 -123 -109 -119 -75 -311 -208 -317 -219
-5 -7 -25 -21 -46 -31 -21 -10 -35 -20 -32 -23 9 -10 48 -9 84 0 37 11 96 -7
86 -26 -3 -6 -8 -19 -11 -28 -4 -10 -19 -18 -38 -20 -17 -2 59 -3 169 -4 195
0 339 -14 540 -50 44 -8 104 -17 134 -21 51 -6 53 -5 46 15 -5 18 -2 22 15 22
13 0 24 8 27 19 8 31 52 32 108 3 34 -18 45 -27 33 -30 -10 -2 -18 -8 -18 -13
0 -5 -16 -9 -35 -9 -19 0 -35 -4 -35 -10 0 -5 6 -10 13 -10 8 0 7 -3 -3 -10
-16 -10 -1 -18 96 -46 46 -13 233 -80 307 -109 16 -7 17 7 17 213 0 120 -5
244 -10 273 -16 81 -17 212 -2 217 9 3 12 56 12 208 0 112 -4 204 -8 204 -4 0
-12 -4 -17 -9 -6 -5 -44 -21 -85 -36 -41 -15 -104 -38 -140 -51 -71 -26 -138
-31 -145 -11 -2 6 -7 32 -9 56 -3 24 -7 45 -9 47 -2 2 -25 -17 -53 -42z"/>
<path d="M35 2830 c4 -6 11 -8 16 -5 14 9 11 15 -7 15 -8 0 -12 -5 -9 -10z"/>
<path d="M1690 2825 c0 -8 5 -15 10 -15 6 0 10 7 10 15 0 8 -4 15 -10 15 -5 0
-10 -7 -10 -15z"/>
<path d="M110 2820 c0 -5 10 -15 23 -21 22 -12 22 -12 3 10 -21 23 -26 26 -26
11z"/>
<path d="M2007 2803 c-4 -3 -7 -11 -7 -17 0 -6 5 -5 12 2 6 6 9 14 7 17 -3 3
-9 2 -12 -2z"/>
<path d="M620 2790 c0 -5 5 -10 11 -10 5 0 7 5 4 10 -3 6 -8 10 -11 10 -2 0
-4 -4 -4 -10z"/>
<path d="M1860 2759 c0 -5 5 -7 10 -4 6 3 10 8 10 11 0 2 -4 4 -10 4 -5 0 -10
-5 -10 -11z"/>
<path d="M6524 2745 c-16 -12 -17 -14 -2 -15 25 0 49 11 42 21 -7 13 -17 11
-40 -6z"/>
<path d="M1956 2733 c-6 -14 -5 -15 5 -6 7 7 10 15 7 18 -3 3 -9 -2 -12 -12z"/>
<path d="M1780 2731 c0 -5 5 -13 10 -16 6 -3 10 -2 10 4 0 5 -4 13 -10 16 -5
3 -10 2 -10 -4z"/>
<path d="M2095 2710 c-10 -11 -15 -20 -11 -20 11 0 39 30 34 36 -3 2 -13 -5
-23 -16z"/>
<path d="M980 2711 c-30 -8 -38 -36 -13 -49 28 -14 92 -22 98 -11 8 12 -33 69
-48 68 -7 -1 -23 -4 -37 -8z"/>
<path d="M6485 2710 c4 -6 11 -8 16 -5 14 9 11 15 -7 15 -8 0 -12 -5 -9 -10z"/>
<path d="M6270 2700 c20 -13 40 -13 40 0 0 6 -12 10 -27 10 -22 0 -25 -2 -13
-10z"/>
<path d="M1975 2690 c4 -6 11 -8 16 -5 14 9 11 15 -7 15 -8 0 -12 -5 -9 -10z"/>
<path d="M17 2683 c-14 -4 -17 -13 -15 -36 3 -29 9 -34 60 -55 74 -29 124 -39
114 -24 -9 14 22 16 43 3 15 -10 71 5 71 19 0 40 -53 55 -84 25 -8 -8 -26 -15
-40 -15 -14 0 -26 -5 -26 -12 0 -6 -3 -8 -7 -4 -5 4 0 13 9 20 17 12 17 14 -2
31 -11 10 -23 15 -26 12 -4 -4 -20 5 -36 18 -16 14 -33 24 -36 24 -4 -1 -15
-3 -25 -6z"/>
<path d="M1941 2666 c-6 -16 -10 -34 -8 -40 3 -6 10 2 16 18 6 16 10 34 8 40
-3 6 -10 -2 -16 -18z"/>
<path d="M780 2640 c0 -13 7 -20 19 -20 25 0 38 20 20 31 -23 15 -39 10 -39
-11z"/>
<path d="M1385 2650 c3 -5 8 -10 11 -10 2 0 4 5 4 10 0 6 -5 10 -11 10 -5 0
-7 -4 -4 -10z"/>
<path d="M6346 2639 c-16 -15 -17 -21 -6 -34 16 -19 46 -19 54 0 3 8 2 15 -3
15 -4 0 -12 8 -17 19 -9 18 -10 18 -28 0z"/>
<path d="M2036 2634 c-5 -14 -4 -15 9 -4 17 14 19 20 6 20 -5 0 -12 -7 -15
-16z"/>
<path d="M6263 2624 c-3 -8 -9 -11 -14 -8 -5 3 -9 0 -9 -5 0 -14 17 -14 25 -1
3 6 16 10 27 10 12 0 18 3 14 7 -13 13 -37 11 -43 -3z"/>
<path d="M550 2620 c0 -5 7 -10 15 -10 8 0 15 5 15 10 0 6 -7 10 -15 10 -8 0
-15 -4 -15 -10z"/>
<path d="M1055 2620 c-11 -17 7 -30 33 -24 21 6 31 24 13 24 -5 0 -16 3 -24 6
-8 3 -18 0 -22 -6z"/>
<path d="M1900 2619 c0 -5 5 -7 10 -4 6 3 10 8 10 11 0 2 -4 4 -10 4 -5 0 -10
-5 -10 -11z"/>
<path d="M2445 2610 c3 -5 8 -10 11 -10 2 0 4 5 4 10 0 6 -5 10 -11 10 -5 0
-7 -4 -4 -10z"/>
<path d="M2940 2599 c0 -5 5 -7 10 -4 6 3 10 8 10 11 0 2 -4 4 -10 4 -5 0 -10
-5 -10 -11z"/>
<path d="M1965 2570 c-4 -16 -10 -30 -15 -30 -4 0 -10 -7 -14 -15 -12 -32 11
-13 32 26 25 46 26 49 13 49 -5 0 -12 -13 -16 -30z"/>
<path d="M1550 2580 c0 -5 5 -10 10 -10 6 0 10 5 10 10 0 6 -4 10 -10 10 -5 0
-10 -4 -10 -10z"/>
<path d="M1822 2540 c-13 -16 -20 -30 -17 -30 7 0 55 47 55 55 0 14 -18 2 -38
-25z"/>
<path d="M2830 2550 c-8 -5 -10 -10 -5 -10 6 0 17 5 25 10 8 5 11 10 5 10 -5
0 -17 -5 -25 -10z"/>
<path d="M1525 2541 c-3 -6 -1 -12 4 -12 34 -4 41 -3 44 6 3 14 -40 19 -48 6z"/>
<path d="M1740 2530 c0 -5 5 -10 11 -10 5 0 7 5 4 10 -3 6 -8 10 -11 10 -2 0
-4 -4 -4 -10z"/>
<path d="M2790 2530 c-9 -6 -10 -10 -3 -10 6 0 15 5 18 10 8 12 4 12 -15 0z"/>
<path d="M1742 2503 c9 -2 19 -16 23 -31 l7 -27 9 24 c11 27 -2 41 -36 40 -15
-1 -16 -2 -3 -6z"/>
<path d="M2718 2493 c7 -3 16 -2 19 1 4 3 -2 6 -13 5 -11 0 -14 -3 -6 -6z"/>
<path d="M2075 2471 c-3 -5 -1 -12 5 -16 5 -3 10 1 10 9 0 18 -6 21 -15 7z"/>
<path d="M1876 2453 c-6 -14 -5 -15 5 -6 7 7 10 15 7 18 -3 3 -9 -2 -12 -12z"/>
<path d="M1115 2439 c-10 -15 1 -23 20 -15 9 3 13 10 10 16 -8 13 -22 13 -30
-1z"/>
<path d="M1747 2433 c-4 -3 -7 -13 -7 -20 0 -19 82 -14 88 6 3 9 0 11 -9 6 -7
-5 -26 -10 -41 -12 -21 -2 -26 1 -22 12 6 16 2 20 -9 8z"/>
<path d="M920 2400 c-12 -8 -11 -10 7 -10 12 0 25 5 28 10 8 13 -15 13 -35 0z"/>
<path d="M1398 2403 c6 -2 18 -2 25 0 6 3 1 5 -13 5 -14 0 -19 -2 -12 -5z"/>
<path d="M1662 2231 c-11 -6 -9 -9 7 -14 11 -2 28 1 38 9 17 12 16 13 -7 14
-14 0 -31 -4 -38 -9z"/>
<path d="M7680 1995 c8 -9 17 -12 24 -6 6 4 18 11 26 14 8 3 -2 6 -24 6 -33 1
-37 -1 -26 -14z"/>
<path d="M7803 1995 c2 -5 13 -11 25 -13 12 -2 22 -10 22 -18 0 -8 10 -14 26
-14 20 0 25 4 20 16 -5 13 -2 15 13 11 11 -3 28 1 37 8 17 12 16 13 -4 19 -31
10 -143 3 -139 -9z"/>
<path d="M7260 1970 c-22 -5 -23 -7 -7 -13 26 -10 55 -9 61 2 8 12 -24 19 -54
11z"/>
<path d="M8128 1963 c7 -3 16 -2 19 1 4 3 -2 6 -13 5 -11 0 -14 -3 -6 -6z"/>
<path d="M7190 1950 c0 -5 5 -10 10 -10 6 0 10 5 10 10 0 6 -4 10 -10 10 -5 0
-10 -4 -10 -10z"/>
<path d="M8530 1940 c20 -13 33 -13 25 0 -3 6 -14 10 -23 10 -15 0 -15 -2 -2
-10z"/>
<path d="M7070 1920 c0 -5 4 -10 9 -10 6 0 13 5 16 10 3 6 -1 10 -9 10 -9 0
-16 -4 -16 -10z"/>
<path d="M6970 1890 c0 -5 5 -10 11 -10 5 0 7 5 4 10 -3 6 -8 10 -11 10 -2 0
-4 -4 -4 -10z"/>
<path d="M6928 1873 c7 -3 16 -2 19 1 4 3 -2 6 -13 5 -11 0 -14 -3 -6 -6z"/>
<path d="M6841 1859 c-13 -5 -22 -11 -20 -13 7 -7 59 6 59 15 0 11 -8 11 -39
-2z"/>
<path d="M6711 1804 c-25 -10 -31 -18 -24 -25 8 -8 20 -6 42 7 17 10 31 22 31
26 0 11 -10 10 -49 -8z"/>
<path d="M6657 1773 c-4 -3 -7 -11 -7 -17 0 -6 5 -5 12 2 6 6 9 14 7 17 -3 3
-9 2 -12 -2z"/>
<path d="M5760 948 c1 -40 59 -183 124 -302 48 -88 49 -89 65 -67 29 38 74 61
119 61 23 0 42 5 42 11 0 16 -180 238 -233 287 -36 33 -54 42 -82 42 -33 0
-35 -2 -35 -32z"/>
<path d="M385 493 c-13 -12 -16 -27 -12 -56 7 -50 13 -55 39 -30 16 17 19 28
14 57 -8 43 -19 51 -41 29z"/>
<path d="M248 429 c-27 -15 -21 -42 28 -141 13 -27 12 -28 -15 -28 -20 0 -41
12 -70 40 -22 22 -41 44 -41 50 0 18 -16 11 -55 -24 -38 -32 -39 -34 -23 -58
14 -20 25 -25 67 -26 44 -1 51 2 51 19 0 10 4 19 9 19 17 0 37 -45 35 -82 l-1
-37 41 24 c34 21 40 29 38 52 -2 16 -10 36 -19 45 -18 20 -9 54 19 69 17 9 18
12 5 27 -8 9 -17 26 -19 37 -4 23 -25 29 -50 14z"/>
<path d="M434 398 c-12 -5 -27 -21 -33 -35 -8 -17 -17 -24 -29 -21 -10 3 -23
-1 -29 -7 -7 -7 -18 -15 -25 -18 -11 -4 -11 -7 0 -18 10 -11 16 -11 33 -1 11
7 24 10 30 6 6 -3 13 4 16 15 6 25 26 23 32 -4 2 -13 -1 -16 -12 -12 -11 4
-18 -1 -23 -16 -3 -12 -16 -30 -28 -39 -11 -10 19 -1 68 19 49 21 84 39 77 41
-6 2 -11 19 -11 38 0 19 -4 34 -10 34 -5 0 -10 7 -10 15 0 17 -16 18 -46 3z"/>
<path d="M1 181 c-1 -38 3 -61 8 -55 17 18 19 59 6 89 -13 29 -13 28 -14 -34z"/>
<path d="M110 182 c0 -5 7 -9 15 -9 8 0 15 4 15 9 0 4 -7 8 -15 8 -8 0 -15 -4
-15 -8z"/>
<path d="M170 155 c0 -8 -6 -15 -14 -15 -17 0 -39 -26 -43 -51 -2 -16 6 -13
47 18 38 28 47 40 38 50 -14 17 -28 16 -28 -2z"/>
<path d="M1513 155 c-26 -9 -30 -14 -21 -23 16 -16 33 -15 48 3 19 23 8 31
-27 20z"/>
<path d="M71 154 c-1 -15 24 -36 32 -27 12 12 7 25 -7 20 -8 -3 -17 -1 -20 6
-3 8 -5 8 -5 1z"/>
<path d="M1648 127 c-15 -12 -15 -14 3 -25 10 -7 25 -12 34 -12 9 0 12 -6 9
-15 -4 -8 -1 -16 5 -16 6 -1 17 -2 24 -3 6 0 13 -13 15 -28 3 -24 8 -28 33
-28 16 0 29 4 29 9 0 5 -20 26 -45 47 -25 22 -45 44 -45 51 0 7 -9 17 -19 23
-24 12 -22 12 -43 -3z"/>
<path d="M1762 120 c0 -14 2 -19 5 -12 2 6 2 18 0 25 -3 6 -5 1 -5 -13z"/>
<path d="M1340 115 c0 -6 5 -16 10 -21 7 -7 3 -17 -10 -32 -11 -11 -20 -30
-20 -42 0 -18 6 -20 70 -20 63 0 70 2 70 19 0 29 18 35 22 9 3 -22 7 -23 121
-26 64 -1 117 1 117 5 0 15 -53 52 -101 69 -29 11 -49 24 -49 33 0 11 -3 12
-11 4 -6 -6 -18 -9 -25 -6 -8 3 -14 -1 -14 -11 0 -9 -7 -16 -15 -16 -8 0 -15
-3 -15 -8 0 -4 -23 -7 -50 -7 -44 0 -53 4 -75 30 -13 17 -24 25 -25 20z m60
-85 c0 -5 -2 -10 -4 -10 -3 0 -8 5 -11 10 -3 6 -1 10 4 10 6 0 11 -4 11 -10z"/>
<path d="M1385 110 c3 -5 8 -10 11 -10 2 0 4 5 4 10 0 6 -5 10 -11 10 -5 0 -7
-4 -4 -10z"/>
<path d="M10 88 c0 -39 14 -88 24 -88 7 0 25 14 42 31 17 17 22 28 12 24 -11
-5 -22 2 -33 19 -18 27 -45 35 -45 14z"/>
<path d="M1268 46 c-10 -7 -18 -21 -18 -30 0 -26 17 -18 29 14 5 17 9 30 8 30
-1 0 -10 -7 -19 -14z"/>
</g>
</svg>
